/* XPM */
static char *out[] = {
/* columns rows colors chars-per-pixel */
"52 52 187 2 ",
"   c #0A261C",
".  c #0B281F",
"X  c #12291E",
"o  c #0D311F",
"O  c #1F331E",
"+  c #22321D",
"@  c #072421",
"#  c #0B2622",
"$  c #072C25",
"%  c #0C2C24",
"&  c #0B2E29",
"*  c #102B20",
"=  c #0C3126",
"-  c #073229",
";  c #0C3129",
":  c #0D382E",
">  c #133326",
",  c #183827",
"<  c #13352B",
"1  c #1B3D2B",
"2  c #0C3B30",
"3  c #133E37",
"4  c #193A32",
"5  c #233721",
"6  c #283A20",
"7  c #233D39",
"8  c #0D4237",
"9  c #124234",
"0  c #2C4224",
"q  c #24432B",
"w  c #27442A",
"e  c #334322",
"r  c #364823",
"t  c #3B4B24",
"y  c #344D29",
"u  c #394E29",
"i  c #3F5329",
"p  c #22413A",
"a  c #29473C",
"s  c #414F22",
"d  c #455427",
"f  c #495625",
"g  c #425529",
"h  c #465B2C",
"j  c #4C5A29",
"k  c #545D26",
"l  c #505F2A",
"z  c #53642C",
"x  c #59652B",
"c  c #57692C",
"v  c #5D6E2D",
"b  c #5C702E",
"n  c #516D37",
"m  c #616C2B",
"M  c #63742E",
"N  c #677A2F",
"B  c #697B2F",
"V  c #637331",
"C  c #677B31",
"Z  c #697B30",
"A  c #717D32",
"S  c #0E4940",
"D  c #124B41",
"F  c #175749",
"G  c #195F52",
"H  c #2D4B44",
"J  c #36524C",
"K  c #12604F",
"L  c #116354",
"P  c #19675A",
"I  c #156A5D",
"U  c #196A5E",
"Y  c #27634C",
"T  c #156E60",
"R  c #1A7466",
"E  c #187469",
"W  c #167C6B",
"Q  c #1A786B",
"!  c #1D7F70",
"~  c #217463",
"^  c #405A54",
"/  c #4A5F5D",
"(  c #5C7371",
")  c #687C78",
"_  c #648137",
"`  c #6F8536",
"'  c #62863C",
"]  c #658A3E",
"[  c #6D8A3A",
"{  c #748433",
"}  c #798734",
"|  c #758A37",
" . c #7C8A35",
".. c #718A39",
"X. c #7A8E3C",
"o. c #17856E",
"O. c #1A816F",
"+. c #1C8673",
"@. c #1B8976",
"#. c #1C8C79",
"$. c #20806F",
"%. c #248573",
"&. c #218874",
"*. c #258A78",
"=. c #28887A",
"-. c #22927E",
";. c #608A40",
":. c #768F42",
">. c #799346",
",. c #709049",
"<. c #799448",
"1. c #739651",
"2. c #779A54",
"3. c #789850",
"4. c #769D5A",
"5. c #69817B",
"6. c #1E9581",
"7. c #229B85",
"8. c #2B9B88",
"9. c #389D8A",
"0. c #26A48D",
"q. c #2AA28C",
"w. c #25AD94",
"e. c #29AC93",
"r. c #39A894",
"t. c #23B095",
"y. c #37BDA7",
"u. c #3BBBA2",
"i. c #748882",
"p. c #6C9D95",
"a. c #789390",
"s. c #42A28F",
"d. c #45A191",
"f. c #4AAFA0",
"g. c #5BB6A6",
"h. c #57B8A6",
"j. c #39C3A5",
"k. c #3DC3AD",
"l. c #41C4AC",
"z. c #41CBAF",
"x. c #52C6AD",
"c. c #4ACDB2",
"v. c #5CC6B2",
"b. c #65C6B1",
"n. c #6AC9B9",
"m. c #75CABB",
"M. c #76D1BF",
"N. c #78D0BF",
"B. c #79CFC1",
"V. c #77D1C1",
"C. c #79D0C1",
"Z. c #8B9F9D",
"A. c #939F9F",
"S. c #9DB0A9",
"D. c #99B0AC",
"F. c #A2B0AD",
"G. c #ABB6B3",
"H. c #B4BCBB",
"J. c #BCC0BC",
"K. c #84CDC1",
"L. c #95CFC6",
"P. c #8CD1C6",
"I. c #8DD5C9",
"U. c #93D1C5",
"Y. c #9BD0C7",
"T. c #95D2CA",
"R. c #9BD3CB",
"E. c #A3CFCA",
"W. c #A4D1C7",
"Q. c #A3D5CC",
"!. c #ABD4CE",
"~. c #B1D4CF",
"^. c #ACD6D1",
"/. c #A8D8D2",
"(. c #B6D6D2",
"). c #BCD6D4",
"_. c #BCD8D3",
"`. c #C2C7C6",
"'. c #CAD1CE",
"]. c #CAD7D6",
"[. c #C6D9D5",
"{. c #C7D8D6",
"}. c #CCDAD9",
"|. c #D2D3D5",
" X c #D6D7DA",
".X c #D6DADB",
"XX c #D4DBDF",
/* pixels */
" . . . . . . . . . . . . . . . .<.4.4.<. . . . . . . . . . . . . . . . . . . . . . .{ ` B B B B B C C C ",
" . . . . . . . . . . . . . . . .<.4.4.<. . . . . . . . . . . . . . . . . . . . . . .` B B B B B C B B C ",
" . . . . . . . .}  . .{  .}  .} 2.4.4.<. . . . . . . . . .X. . . . . . . . . . . . .B N B B B B B B C C ",
" . . .[ ] ] .. .{ { { { { }  . .X.X.X. . . . . . . . . . .[ ] [ .. . . . . . . . .} } { { } { } { B C B ",
" . . .] ;.;... . .} B N {  . . . . . . . . . . . . . . . .] ] ;.[  . . . . . . . . . . . . . . .{ N B N ",
" . . .] ;.;... . .{ B B B  . . . . . . . . . . . . .} }  .[ ;.;... . . . . . . . . . . . . . . .{ N N N ",
" . . ...[ .... .} } { { { }  . ...[ [ |  . . . . . .{ { { ..[ [ X. . . . . . . . . . . . . . . . .{ { ` ",
" . . . . . . . . .} }  . .}  . .] ;.;.[  . . . . .} B N _ |  . . . . . . . . . . . . . . . . . . . . . .",
" . . . . . . . . . . . . . . . .] ;.;... . . . .} } N N N { }  .}  . . . . . . . . . . . . . . . . . . .",
" . . . . . . . . . . . . . .X. ...] ] .. . . .{ } { { N N { } { }  . . . . . . . . . . . . . . . ...X.X.",
" . . . . . . . . . . . . . . . . . . . . . .{ C N _ N N B _ N N { }  . . . . . . . . . . . . . .X.4.4.4.",
" . . . . . . . . . . . . . . . . . . . . .Z g u f c v M N N N N {  . . . . . . . . . . . . . . .X.4.4.4.",
" . . . . . . . . . . . . . . . . . . . .{ l > = = > , w t k N N { }  . . . . .|  . . . . . . . .X.4.4.4.",
"B ` B {  . . . . . . . . . . .X. . . .{ r a H 4 = % - -   + N N `  . . . . . .] ;.;. . . . . . . . . . .",
"B B B }  . . . . . . . . . . . . . .A l o 5.'.H.A.) ^ a > O b M {  . . . . . .] ;.;... . . . . . . . . .",
"N N N { }  . . . . . . . . . . . . .d 3 R p..X.X.X X X`.5.$ O s `  . . . . . .] ;.;... . . . . . . . . .",
"} } {  . . . . . . .] ] ]  . . . . .g S e.b.(.!.!.~.{.].Z.; @ u } }  . . . . . .| |  . .} { B Z B { B A ",
"}  . . . . . . . .| ;.;.'  . . . .A i D y.v.R.L.P.P.L.Y.D.( 7 5 j A  . . . . . . . . . .} { B B B Z Z Z ",
" .}  . . . . . . ...' ;.'  .}  .Z 6 3 F l.z.x.R.!.P.P.I.^.XX) & # f  . . . . . . . . . . .{ N B B Z Z Z ",
">.>.<.X. . . . . . .[ [ [ ` ` { V < ! e.z.c.b.^.}.U.I.P.Q.}.) < # d {  . . . . . . . . .} { N C C C Z Z ",
"4.4.4.X. . . . . . . . . .N N B V , @.y.k.M./.(.).Y.U.U.Q.).`.S.J > 0 Z  . . . . . . . . .A N B B C C C ",
"4.4.4.X. . . . . . . . . .Z C c e : =.y.6.g.Q.!.~.(.(._.!.Q.[.|./ & * m  . . . . . . . . .A N B B N Z B ",
"3.3.3.X. . . . . .| { } { Z Z g 8 =.r.j.o.s.V.K.P.R.(.XX!.U._.].J ; X m  . . .{ | {  . . .{ Z A Z B C B ",
" . . . . . . . . .{ N B B N B g 8 q.j.j.o.s.M.M.M.M.C.U.Q.W.).'.J > X m }  .} B Z Z {  . . . . .} B C Z ",
" . . . . . . . . .{ B B C C C g : T @.8.+.d.V.V.N.C.C.B.^.}.!.E.5.H . f M }  .B B B {  . . . . .} N B C ",
" . . . .} } } } } } B B C B C h 2 P I I E d.C.C.C.N.C.C.Q.{.R.T.{.J.p $ + A  .C B B {  . . . . .{ B B B ",
" . . .B _ B B B C B B B C Z C z q ~ *.-.#.r.C.C.V.C.C.C.R.(.L.T.].`.p & + Z  .Z B B }  . . . . . . .{  .",
" . . .{ B B B B B C C C B C B B M Y &.w.w.8.9.h.n.V.C.C.m.K.L.Y.].J.4 > 6 { } C B B {  . . . . . . . . .",
" . .} ` N B B B B B B B B B B N { w L e.6.6.E W =.9.h.n.u.r.T.^.|.H.4 % 6 {  .B B B {  . . . . . . . . .",
" . .} } { { { } { { B B B B B N B w L 7.E +.8.6.#.O.! =.r.u.I.(. XG.< $ e } } { { {  . . .X.2.3.<. . . .",
" . . . . .}  . . .{ B B C C B B { j F $.T ! w.w.w.0.6.@.y.c.c.K.].F.< # t  . . . . . . . .>.4.4.2. . . .",
" . . . . . . . .| { N C C B B N { } n G T @.w.w.w.w.w.0.#.q.l.n.}.S.< @ s  . . . . . . . .>.4.4.2. . . .",
" . . .| ..[ |  . . .{ ` ` { { `  . .M q U #.w.w.t.t.w.w.W W l.f.a.i.> X k  . . . . . . . .X.<.<.>. . . .",
" . . .[ ;.;... . . . . .}  . .{  . . .M Y $.w.e.t.e.t.w.E Q y.8.& # r m  . . . . . . . . . . . . . . . .",
" . . .] ;.;... . . . . . . . . . . . .} u 9 K +.0.e.w.w.E Q u.%.&   f }  . . . . . . . . . . . . . . . .",
" . . .[ ] ] .. . . . . . . . . . . . . .{ l 0 ; 8 U -.0.+.R Q ~ $ X x  .X.X.:. . . .| | ..}  . . . . . .",
" . . . . . . . . . . . . . . . . . . . . .} { c y 1 : F L G - & u v { X.4.4.2. . . .] ;.;.[  . . . . . .",
" . . . . . . . . . . . . . . . . . . . . .{ { B N b g w > = 6 k {  . .X.4.4.4. . . .] ;.;... . . . . . .",
" . . . . . . . . . . . . . . . . . . . . . .{ B C N C N c j B  . . . .X.2.4.4. . . .] ] ' [  . . . . . .",
" . . . . . . . . . . . . . . . . . . . . .} { B C N  .}  .}  . . . . . . . . . . . . . . . . . . . . . .",
" . . . . . . . . . . . . . . . . . . . . . .{ _ N ` }  . . . . . . . . . . . . . . . . . . . . . . . . .",
" . . . . . . . . . . . . . . . . . . . . . .{ N N N  . . . . . . . . . . . . . . . . . . . . . . . . . .",
"{ N ` {  . . . . . . . .X.] ..[ |  .} { { { N N N N |  . . . . . . . . . . . . . . . . . . . . . .B ` Z ",
"N N ` |  . . . . . . . . .] ;.;.| | } { M N N N N B  . . . . . . . . . . . . . . . . . . . . . .{ N N C ",
"N _ B {  . . . . . . . . .] ;.;.|  . .{ N N N M N N }  . . . . . . . . . . . . . . . . . . . . .} N N C ",
"N N B | X.<.X. . . . . . .[ [ [  . . .} { { { { { { }  . .| ..[ X. . . . . . . . . . . . .| { { ` ' C _ ",
"N B N 1.4.4.<. . . . . . . . . . . .}  .} }  . . . . . . .] ;.;.X. . . . . . . . . . . .} { N N C ;.;.;.",
"B B N 1.4.4.<. . . . . . . . . . . . . . .|  . . . . . . .] ;.] [  . . . . . . . . . . . .` N N C ;.;.;.",
"B N N ,.1.1.X. . . . . . . .X. . . . . . . . . . . . . . .X.[ ,... . . . . . . . . . . . . .N N C ' ' ' ",
"B B B N N N { }  . . . . . . . . . . . . . . . . . . . . . . . . . . . . . . . . . . . . .} N N N N N N ",
"_ B B B B N { }  . . . . . . . . . . . . . . . . . . . . . . . . . . . . . . . . . . . . .{ N B C Z C C ",
"B B B B N N { }  . . . . . . . . . . . . . . . . . . .X. . . . . . . . . . . .X. . . . . .{ N N Z C B Z "
};
