/* XPM */
static char *out[] = {
/* columns rows colors chars-per-pixel */
"52 52 175 2 ",
"   c #06251C",
".  c #06291E",
"X  c #0C2C1E",
"o  c #102B1E",
"O  c #15301E",
"+  c #19331F",
"@  c #0B2724",
"#  c #062A23",
"$  c #0A2A22",
"%  c #0C3022",
"&  c #0B342C",
"*  c #163325",
"=  c #1B3424",
"-  c #133128",
";  c #0A3E36",
":  c #273C26",
">  c #223A33",
",  c #1E472E",
"<  c #0B4234",
"1  c #12453B",
"2  c #1F503B",
"3  c #284427",
"4  c #314525",
"5  c #354927",
"6  c #3A4F28",
"7  c #3D5226",
"8  c #3D542A",
"9  c #2F4630",
"0  c #26483A",
"q  c #344832",
"w  c #385535",
"e  c #404F25",
"r  c #445426",
"t  c #42552A",
"y  c #445A29",
"u  c #4D5B2A",
"i  c #4E5F38",
"p  c #4E602A",
"a  c #53642B",
"s  c #5B672C",
"d  c #5D6D2D",
"f  c #5F712E",
"g  c #626E2C",
"h  c #64742F",
"j  c #6A752E",
"k  c #677A2F",
"l  c #687B2F",
"z  c #647230",
"x  c #6A7731",
"c  c #677B31",
"v  c #697B30",
"b  c #717E32",
"n  c #115045",
"m  c #15544A",
"M  c #155B4E",
"N  c #165D50",
"B  c #1A5C53",
"V  c #344C47",
"C  c #275943",
"Z  c #3D564A",
"A  c #0E6151",
"S  c #146355",
"D  c #1B6354",
"F  c #15655A",
"G  c #156A5D",
"H  c #1A6B5D",
"J  c #206455",
"K  c #166F62",
"L  c #177464",
"P  c #197264",
"I  c #147966",
"U  c #177868",
"Y  c #226C63",
"T  c #217163",
"R  c #257F6F",
"E  c #445A55",
"W  c #495D5D",
"Q  c #4E625D",
"!  c #51655F",
"~  c #506661",
"^  c #556C65",
"/  c #596C65",
"(  c #5C6E6B",
")  c #5D716D",
"_  c #5E7670",
"`  c #63736C",
"'  c #677C74",
"]  c #648137",
"[  c #6E8233",
"{  c #62863C",
"}  c #6F8738",
"|  c #658A3E",
" . c #6D8A3A",
".. c #748433",
"X. c #798734",
"o. c #758A37",
"O. c #7C8A35",
"+. c #718A39",
"@. c #7A8E3C",
"#. c #1F8173",
"$. c #1F907C",
"%. c #238475",
"&. c #2C8274",
"*. c #228E7B",
"=. c #2A8E7B",
"-. c #348C7D",
";. c #22937D",
":. c #608A40",
">. c #768F42",
",. c #799346",
"<. c #709049",
"1. c #799448",
"2. c #739651",
"3. c #779A54",
"4. c #789850",
"5. c #769D5A",
"6. c #1E9680",
"7. c #248F80",
"8. c #209380",
"9. c #239C85",
"0. c #2C9C86",
"q. c #229E89",
"w. c #2C9B8A",
"e. c #3B9483",
"r. c #21A089",
"t. c #2CA18D",
"y. c #29AA8F",
"u. c #33A48D",
"i. c #27A890",
"p. c #2CAD97",
"a. c #33A591",
"s. c #33AA94",
"d. c #39AA97",
"f. c #32AF98",
"g. c #37B69F",
"h. c #3DB49F",
"j. c #3DB6A1",
"k. c #608B84",
"l. c #45A695",
"z. c #44B5A3",
"x. c #51B1A1",
"c. c #5FB4A5",
"v. c #58B9A7",
"b. c #6FB3A8",
"n. c #65BAAB",
"m. c #6DBBAE",
"M. c #78B7AB",
"N. c #73BAAD",
"B. c #6EBFB1",
"V. c #70BFB1",
"C. c #7CBEB3",
"Z. c #83BBAE",
"A. c #83BDB2",
"S. c #8DBDB5",
"D. c #8FBFB8",
"F. c #93BFB6",
"G. c #96BEB9",
"H. c #A4BFBD",
"J. c #A8BDBA",
"K. c #B5BBB9",
"L. c #B8BDBD",
"P. c #8CC0B6",
"I. c #8BC0B8",
"U. c #94C0B8",
"Y. c #9CC1BC",
"T. c #A3C1BE",
"R. c #ABC3BF",
"E. c #ACC4C2",
"W. c #B4C4C3",
"Q. c #B7C7C7",
"!. c #BAC3C4",
"~. c #C4C6C8",
"^. c #CAC7C8",
"/. c #C3CAC9",
"(. c #C9CACA",
/* pixels */
"O.O.O.O.O.O.O.O.O.O.O.O.O.O.O.O.1.5.5.1.O.O.O.O.O.O.@.O.O.O.O.O.O.O.O.O.O.O.O.O.O.O...[ l l l l l l l c ",
"O.O.O.O.O.O.O.O.O.O.O.O.O.O.O.X.4.3.5.,.O.O.O.O.O.O.O.O.O.O.O.O.O.O.O.O.O.O.O.O.O.O.[ l l l l l k l c l ",
"O.O.O.O.O.O.O.O.O.O.O.X.O.O.O.X.4.5.5.1.O.O.O.O.O.O.O.O.O.O.O.O.O.O.O.O.O.O.O.O.O.O.l l k k l l k k l l ",
"O.O.O. .| | +.O.O.X.l [ [ O.O.X.@.@.@.@.O.O.O.O.O.O.O.O.O. . . .o.O.O.O.O.O.@.O.O.O.X...X...X.X...k l l ",
"O.O.O.| :.:.+.O.O...l l [ O.O.O.O.O.O.O.O.O.O.O.O.O.O.O.O.| | :. .O.O.O.O.O.O.O.O.O.O.O.O.O.O.O...k k k ",
"O.O.O.| :.:.+.O.O...l l l O.O.O.O.O.O.O.O.O.O.O.O.O.O.X.O.| :.:. .O.O.O.O.O.O.O.O.O.O.O.O.O.O.O.X.k k j ",
"O.O.O.+. .+.+.O.O.X.......X.O.O.+. . .o.O.O.O.O.O.O.[ ....+. . .@.O.O.O.O.O.O.O.O.O.O.O.O.O.O.O.o.......",
"O.O.O.O.O.O.O.O.X.O.X.X.O.O.O.O.| | :. .O.O.O.O.O.X.l l l o.O.O.O.O.O.O.O.O.O.O.O.O.O.O.O.O.O.O.X.O.O.O.",
"O.O.O.O.O.O.O.O.O.O.O.O.O.O.O.O.| | |  .O.O.X.O.X.X.l l l X.O.X.O.O.O.O.O.O.O.O.O.O.O.O.O.O.O.O.O.O.O.O.",
"O.O.O.O.O.O.O.O.O.O.O.O.O.O.O.O. .| | o.O.O.X...X...l l l [ ..X.X.X.O.O.O.O.O.O.O.O.O.O.O.O.O.O.O.@.@.@.",
"O.O.O.O.O.O.O.O.O.O.O.O.O.O.O.@.O.O.O.O.O.O...l l l l l k k l l ..X.O.O.O.O.O.O.O.O.O.O.O.O.O.O.@.5.5.5.",
"O.O.O.O.O.O.O.O.O.O.O.O.O.O.O.O.O.O.O.O.X.b l h f f f f f k l l ..O.O.O.O.O.O.O.O.O.O.O.O.O.O.O.@.5.5.5.",
"O.O.X.O.O.O.O.O.O.O.O.O.O.O.O.O.O.O.O.O.j : : = = = = = + p l l ..X.O.O.O.O.O.o.O.O.O.O.O.O.O.O.@.5.5.5.",
"l [ l X.O.O.O.O.O.O.O.O.O.O.O.O.O.O.O...g O @ @ $ $ . $ . 8 f h [ X.O.O.O.O.o.| | | o.O.O.O.O.O.O.o.O.O.",
"l l k X.O.O.O.O.O.O.O.O.O.O.O.O.O.O.j 4 9 E E E Q ~ ! ~ / Z + y ..O.O.O.O.O.O.| :.:.o.O.O.O.O.O.O.O.O.O.",
"l l k ..O.O.O.O.O.O.O.O.O.O.O.O.O.O.d $ V !.~./.(.(.(.(./.'   5 l O.O.O.O.O.o.| :.:.o.O.O.X.O.O.O.O.X.O.",
"..X...O.O.O.O.O.O.o.| | | O.O.O.z 5 q V ^ J.E.E.W.R.E.W.!.k.m 2 : p O.O.O.O.O.o.o.o.O.O.O...l b ..v b v ",
"O.O.O.O.O.O.O.O.O.+.| :.| O.O.O.a # W !.E.A.A.A.C.A.A.U.Y.n.y.T # 8 O.O.O.O.O.O.O.O.O.O.X.[ l l l l l v ",
"O.O.O.O.O.O.O.O.O.+.:.:.:.o.s 4 q 0 ) !.E.A.C.C.C.D.F.A.C.x.p.T # t O.O.O.O.O.O.O.O.O.O.O...k l k l v c ",
",.,.1.O.O.O.O.O.O.O. . .} ..e   ^ K.K.H.U.C.C.C.A.E.Q.n.j.h.z.Y $ 7 b ..O.O.O.O.O.O.O.O.O.[ k l c c l b ",
"5.5.5.@.O.O.O.O.O.O.O.O.O.l 7   ( ~.W.G.G.F.P.I.S.R.Q.N.c.z.j.*.B 1 + d O.O.O.O.O.O.O.O.O...l l l c c l ",
"5.5.5.@.O.O.O.O.O.O.O.X.X.j 7 . ~ ~.W.A.S.!.!.T.T.T.T.Y.Y.v.g.p.i.H X s O.O.X.X.O.O.O.O.O.[ l l l l l c ",
"4.4.3.@.O.O.O.O.O.O.....s 4 : > ` Q.T.S.F.W.R.U.U.P.F.S.I.l.0.a.f.D X a O.O.X.X.....O.O.O.[ l b v l c c ",
"O.O.O.O.O.O.O.O.O...k l 7 $ ) L.J.A.F.Q.W.M.N.m.N.m.m.m.B.&.K t.z.D $ 6 s X.O.l l l ..O.O.O.O.O.X.l c l ",
"O.O.O.O.O.O.O.X.O...l l 7 $ / ^.R.C.S.W.E.V.n.m.m.m.m.m.n.R P a.j.%.P 1 = h X.c l l ..O.O.O.O.O.X.l l l ",
"O.O.O.O.X.O.O.X.X.X.l l 8 $ / ^.R.A.A.H.G.M.B.m.m.m.m.m.n.&.P u.j.s.u.n - g O.l l l X.O.O.O.O.O.X.l l l ",
"O.O.O.l l l l l c l k l y $ ! ^.E.S.Z.M.b.m.B.B.m.B.m.m.n.R P R R U P ; * z O.c l l ..O.O.O.O.O.X.O.X.X.",
"O.O.O.[ l l l l l c c c t X ! ^.W.G.A.0.w.B.V.V.B.V.B.B.n.R P A A A N & = x X.x c l X.O.O.O.O.O.O.X.O.O.",
"O.O.O.l k l l l l l l c u X E ~.E.C.n.a.a.e.e.e.e.-.-.-.-.;.;.*.*.P F ; : b X.l l k ..O.O.O.O.O.O.O.O.O.",
"O.O.O.........O.....l k p o Z /.Y.z.h.j.d.U P P P P P L I ;.9.q.q.K J 3 6 X.X.....X.X.O.O.>.1.3.1.O.O.O.",
"O.O.O.O.O.O.O.O.O...l c z r i _ _ h.d.#.R 8.$.6.;.8.6.6.;.G G 9.7.; 3 X.X.X.O.O.O.O.O.O.O.,.5.5.3.O.O.O.",
"O.O.O.O.O.O.O.O.O...k c c c d $ n h.a.A F 9.q.q.q.q.r.9.;.S G *.%.% 4 O.O.O.O.O.O.O.O.O.O.,.5.5.3.O.O.O.",
"O.O.O.o. . .o.O.O.O...[ ..[ k * 1 t.w.F K 9.6.i.q.q.q.q.;.S S L H $ 5 O.O.O.O.O.O.O.O.O.O.@.1.1.,.O.O.O.",
"O.O.O.| :.:. .O.O.O.O.O.O.O...4 0 =.*.F K 8.q.q.q.q.r.9.;.G S m C s z O.O.O.O.O.O.O.O.O.O.O.O.O.O.O.O.O.",
"O.O.O.| | :.+.O.O.O.O.O.O.O.O...c , < H U 9.q.q.q.q.r.r.$.L D - 8 X.O.O.O.O.O.X.O.O.O.O.O.O.O.O.O.O.O.O.",
"O.O.O. .| | o.O.O.O.O.O.O.O.O.X...y 8 C B F K B D N M B n 1 w g b O.O.O.@.>.>.O.O.O.O.o.o.O.O.O.O.O.O.O.",
"O.O.O.O.O.O.O.O.O.O.O.O.O.O.O.O.O.X.b 3 * * * * * = = = = = u X.O.O.O.@.5.5.3.O.O.O.| :.:. .O.O.O.O.O.O.",
"O.O.O.O.O.O.O.O.O.O.O.O.O.O.O.O.O.O.O.j k k h d d d d h j l X.O.O.O.O.@.5.5.5.O.O.O.| :.:. .O.O.O.O.O.O.",
"O.O.O.O.O.O.O.O.O.O.O.O.O.O.O.O.O.O.O.O.O.O...l c c c c l ..O.O.O.O.O.>.5.5.3.O.O.O.| | |  .O.O.O.O.O.O.",
"O.O.O.O.O.O.O.O.O.O.O.O.O.O.O.O.O.O.O.O.O.O.X.l c c X.O.O.O.O.O.O.O.O.O.O.O.O.O.O.O.O.O.O.O.O.O.O.O.O.O.",
"O.O.O.O.O.O.O.O.O.O.O.O.O.O.O.O.O.O.O.O.O.O...l l l O.O.O.O.O.O.O.O.O.O.O.O.O.O.O.o.O.O.O.O.O.O.O.O.O.O.",
"O.O.X.X.O.O.O.O.O.O.O.O.O.O.O.O.O.O.O.O.O.X.X.l l l X.O.O.O.O.O.O.O.O.O.O.O.O.O.O.O.O.O.O.O.O.O.O.O.O.O.",
"[ l [ X.O.O.O.O.O.O.O.O.O.| +.<.o.O.O...[ l l l l l O.O.O.O.O.O.O.O.O.O.O.O.O.O.O.O.O.O.O.O.O.O.X.v v v ",
"l l l X.O.O.O.O.O.@.O.O.O.:.| :.X.O.O.[ k l l l l [ O.O.O.O.O.O.O.O.O.O.O.@.O.O.O.O.O.O.O.O.O.O.X.l v c ",
"l l l X.O.O.O.O.O.O.O.O.o.| :.:.X.O.O.[ l l k k h l X.O.O.O.O.O.O.O.O.O.O.O.O.O.O.O.O.O.O.O.O.O.X.c c l ",
"l l l +.,.,.@.O.O.O.O.O.O. . . .O.O.O...[ [ [ [ [ ..O.O.O.+. .+.O.O.O.O.O.O.O.O.O.O.O.O.O.O.[ [ [ { ] ] ",
"v c l 2.5.5.1.O.O.O.O.O.O.O.O.O.O.O.O.O.X.O.O.O.O.O.O.O.O.| :.:.@.O.O.O.O.O.O.O.O.O.O.O.O...l l c :.:.:.",
"c l k 2.5.5.,.O.O.O.O.O.O.O.O.O.O.O.O.O.O.O.O.O.O.O.O.O.@. .:.:.+.O.O.O.O.O.O.O.O.O.O.O.X.[ k k c :.{ :.",
"l v k <.2.<.,.O.O.O.O.O.O.O.O.O.O.O.O.O.O.O.O.O.@.O.O.O.O.@.+. .+.O.O.O.O.O.O.O.O.O.O.O.O.O.k k c { { { ",
"v c k k k k ..O.O.O.O.O.O.O.O.O.O.@.O.O.O.O.O.O.O.O.@.O.O.O.O.O.O.O.O.O.O.O.O.@.O.O.O.O.O.X.k k k c l l ",
"v c v v l k b O.O.O.O.O.O.O.O.O.O.O.O.O.O.O.O.O.O.O.O.O.O.O.O.O.O.O.O.O.O.O.O.O.O.O.O.O.O...k l c c v c ",
"k v c l l h ..O.O.O.O.O.O.O.O.O.O.O.O.O.O.O.O.O.O.O.O.O.O.O.O.O.O.O.O.O.O.O.O.O.O.O.O.O.O...k l c l c l "
};
