/* XPM */
static char *out[] = {
/* columns rows colors chars-per-pixel */
"52 52 132 2 ",
"   c #081E17",
".  c #04211B",
"X  c #09271F",
"o  c #11231C",
"O  c #1A2F1C",
"+  c #26381A",
"@  c #072320",
"#  c #0A2622",
"$  c #062922",
"%  c #0B2B22",
"&  c #112D22",
"*  c #0E342C",
"=  c #143224",
"-  c #1B3422",
";  c #14342A",
":  c #1B332C",
">  c #153D35",
",  c #21332E",
"<  c #223F28",
"1  c #293F29",
"2  c #243634",
"3  c #283636",
"4  c #243936",
"5  c #2A3B33",
"6  c #253D3B",
"7  c #2A3E3D",
"8  c #0E473E",
"9  c #1F4434",
"0  c #12443A",
"q  c #14483F",
"w  c #1E4D3A",
"e  c #21442C",
"r  c #2B4328",
"t  c #26492F",
"y  c #324423",
"u  c #384721",
"i  c #364926",
"p  c #3C4E24",
"a  c #3A4E29",
"s  c #3F5427",
"d  c #3B542E",
"f  c #2F413C",
"g  c #455523",
"h  c #4C5C2A",
"j  c #405B33",
"k  c #536229",
"l  c #59672A",
"z  c #596A2D",
"x  c #5F6F32",
"c  c #626C2C",
"v  c #64742F",
"b  c #69752F",
"n  c #677A2F",
"m  c #687B2F",
"M  c #616F30",
"N  c #637231",
"B  c #687531",
"V  c #677B31",
"C  c #697B30",
"Z  c #717E31",
"A  c #144E44",
"S  c #0E5144",
"D  c #145145",
"F  c #1A5043",
"G  c #145349",
"H  c #19554A",
"J  c #1A5C4D",
"K  c #175F52",
"L  c #195E51",
"P  c #334544",
"I  c #364B47",
"U  c #235541",
"Y  c #176356",
"T  c #1B6253",
"R  c #156658",
"E  c #1A6659",
"W  c #166858",
"Q  c #226257",
"!  c #24655A",
"~  c #266A5D",
"^  c #2E6E63",
"/  c #3F6861",
"(  c #267363",
")  c #2E7A69",
"_  c #387266",
"`  c #337268",
"'  c #3B7168",
"]  c #454D4D",
"[  c #4B6D69",
"{  c #44796F",
"}  c #49796E",
"|  c #5B736F",
" . c #477772",
".. c #4A7770",
"X. c #457971",
"o. c #4E7A72",
"O. c #557A73",
"+. c #5A7C76",
"@. c #5E7C79",
"#. c #61696B",
"$. c #647776",
"%. c #637B76",
"&. c #6D7976",
"*. c #647D7A",
"=. c #6B7C7A",
"-. c #737C7C",
";. c #787F7F",
":. c #648137",
">. c #6E8233",
",. c #62863C",
"<. c #658A3E",
"1. c #6D8A3A",
"2. c #748433",
"3. c #798734",
"4. c #758A37",
"5. c #7C8A35",
"6. c #718A39",
"7. c #7A8E3C",
"8. c #608A40",
"9. c #768F42",
"0. c #799346",
"q. c #709049",
"w. c #799448",
"e. c #739651",
"r. c #779A54",
"t. c #789850",
"y. c #769D5A",
"u. c #6F817D",
"i. c #73817E",
"p. c #727E80",
"a. c #6F8180",
"s. c #778081",
/* pixels */
"5.5.5.5.5.5.5.5.5.5.5.5.5.5.5.3.w.y.y.0.5.5.5.5.5.5.5.5.5.5.5.5.5.5.5.5.5.5.5.5.5.5.>.>.n n n m m m C C ",
"5.5.5.5.5.5.5.5.5.5.5.5.5.5.5.5.t.y.y.0.5.5.5.5.5.5.5.5.5.5.5.5.5.5.5.5.5.5.5.5.5.5.>.m m m m m C C C n ",
"5.5.5.5.5.5.5.5.5.5.5.5.5.5.5.3.r.y.y.w.5.5.5.5.5.5.5.5.5.7.5.5.5.5.5.5.5.5.5.5.5.5.m n n n n n n n V V ",
"5.5.5.1.<.<.6.5.3.3.>.m Z 5.3.5.7.7.7.5.5.5.5.5.5.5.5.5.5.1.1.1.7.5.5.5.5.5.5.5.5.5.5.2.3.3.2.3.3.n n V ",
"5.5.5.<.8.8.6.5.5.3.m m >.5.5.5.5.5.5.5.5.5.5.5.5.5.5.5.5.<.<.8.1.5.5.5.5.5.5.5.5.5.5.5.5.5.5.5.3.n n n ",
"5.5.5.<.8.8.6.5.5.2.m n m 5.5.5.5.5.5.5.5.5.5.5.5.5.5.5.5.<.8.8.6.5.5.5.5.5.5.5.5.5.5.5.5.5.5.5.3.n n n ",
"5.5.5.6.6.1.6.5.5.3.>.2.2.5.5.5.6.6.1.4.5.5.5.5.5.3.>.>.>.6.1.1.5.5.5.5.5.5.5.5.5.5.5.5.5.5.5.5.3.>.2.>.",
"5.5.5.5.5.5.5.5.3.5.3.5.5.5.5.5.<.8.8.1.5.5.5.5.5.3.n n >.4.5.5.5.5.5.5.5.5.5.5.5.5.5.5.5.5.5.5.5.3.5.5.",
"5.5.5.5.5.5.5.5.5.5.5.5.5.5.5.5.<.<.<.1.5.5.5.5.5.3.>.m m 2.5.5.5.5.5.5.5.5.5.5.5.5.5.5.5.5.5.5.5.5.5.5.",
"5.5.5.5.5.5.5.5.5.5.5.5.5.5.5.5.1.<.<.6.5.5.3.2.2.2.m m m >.2.2.3.5.5.5.5.5.5.5.5.5.5.5.5.5.5.5.5.7.7.7.",
"5.5.5.5.5.5.5.5.5.5.5.5.5.5.5.5.5.5.5.5.5.5.2.C m n n m m m m n >.5.5.5.5.5.5.5.5.5.5.5.5.5.5.5.7.y.y.y.",
"5.5.5.5.5.5.5.5.5.5.5.5.5.5.5.5.5.5.5.5.5.5.3.B n k r + l m m m 2.5.5.5.5.5.5.5.5.5.5.5.5.5.5.5.7.y.y.y.",
"5.5.5.5.5.5.5.5.5.5.5.5.5.5.5.5.5.5.5.5.5.5.2.l i & #   u V n V >.5.5.5.5.5.5.5.5.5.5.5.5.5.5.5.7.y.y.y.",
"m >.m 2.5.5.5.5.5.5.5.5.5.5.5.5.5.5.5.5.5.5.Z - %     , 1 l n V >.5.5.5.5.5.4.<.8.<.4.5.5.5.5.5.5.5.5.5.",
"m m m 2.5.5.5.5.7.5.5.5.5.5.5.5.5.5.5.5.5.5.B & @ # ] -.I y B n >.5.5.5.5.5.5.8.8.8.4.5.5.5.5.5.5.5.3.5.",
"m m n 2.5.5.5.5.5.5.5.5.5.5.5.5.5.5.5.5.5.3.h & : #.i.;./ < V n 4.5.5.5.5.5.5.<.8.8.6.5.5.5.5.5.5.5.5.5.",
"3.3.3.5.5.5.5.5.5.4.<.<.<.5.5.5.5.5.5.5.5.B - # 4 p.=.u.^ r 5.3.5.5.5.5.5.5.5.5.5.7.4.5.5.2.m m m >.C Z ",
"5.5.5.5.5.5.5.5.5.6.<.8.<.5.5.5.5.5.5.5.5.B = # 6 *.O.o.^ ; c 5.5.5.5.5.5.5.5.5.5.5.5.5.3.2.n n m m C C ",
"5.5.5.5.5.5.5.5.5.6.<.8.8.2.5.5.5.5.5.5.2.p $ : | O.+.} ( w k 5.5.5.5.5.5.5.5.5.5.5.5.5.5.2.n C m C C C ",
"0.0.w.5.5.5.5.5.5.5.1.1.1.2.>.2.5.5.5.5.b = % , =.O.%.+.) J h 5.5.5.5.5.5.5.5.5.5.5.5.5.5.2.n m C C C C ",
"y.y.y.7.5.5.5.5.5.5.5.5.3.n V n 3.5.5.5.M = $ f %.O.@.p.` J + 2.5.5.5.5.5.5.5.5.5.5.5.5.5.2.n m C C C C ",
"y.y.y.7.5.5.5.5.5.5.5.5.5.C V n 3.5.5.Z i % 2 &.*.*.*.O.L ! e C 5.5.5.5.5.5.5.5.5.5.5.5.3.>.m m n n C C ",
"t.t.r.6.5.5.5.5.5.5.2.3.3.n C n 2.2.2.N % $ 5 p.=.=.O.X.J ~ t 2.5.5.5.5.5.5.5.2.3.3.3.5.5.2.m m C n C C ",
"5.5.5.5.5.5.5.5.2.2.n n m n n n V V n l % $ 5 a.+.@...{ J D < Z 5.5.5.5.5.5.3.C V V 3.3.5.3.5.5.3.n V C ",
"5.5.5.5.5.5.5.5.5.2.n m m V C V n V V z % $ 3 s.*.} X.' G 0 r Z 5.5.5.5.5.5.5.C n n 3.3.5.5.5.5.3.n m m ",
"5.5.5.5.5.3.3.3.5.3.n n V C m n n V V z % # P &.*. .X.X.D F h 3.5.5.5.5.5.5.3.C m n 2.5.5.5.5.5.3.n m m ",
"5.5.5.C C m m m C n n C m C C n 3.3.3.a % 6 $.$.*. .X.` L U C 5.5.5.5.5.5.5.5.C m m 3.5.5.5.5.5.5.3.2.5.",
"5.5.5.>.C m m m C C C m C V V n 3.5.N ; $ 7 =.+.O.X.' H J w Z 5.5.5.5.5.5.5.5.C m m 3.5.5.5.5.5.5.5.5.5.",
"5.5.5.>.m n n m n n n m V V V n 3.5.z ; X 4 =.o._ ' D A S 9 Z 3.5.5.5.5.5.5.5.n m n 2.5.5.5.5.5.5.5.5.5.",
"5.5.5.2.3.3.3.2.2.>.n m m m V n 2.5.v ; X 4 -.o.! G H L 8 d 3.5.5.5.5.5.5.5.5.3.3.3.2.5.5.9.t.t.w.5.5.5.",
"5.5.5.5.5.5.5.2.5.3.n C V C n n 2.5.v ; % 4 s. .Q G Y K > M 5.5.5.5.5.5.5.5.5.5.5.5.5.5.5.0.y.y.r.5.5.5.",
"5.5.5.5.5.5.5.5.5.3.n V n V n n 3.5.x ; # 4 *.` E Y R Y 9 B 5.5.5.5.5.5.5.5.5.5.5.5.5.5.5.0.y.y.r.5.5.5.",
"5.5.5.6.1.6.6.5.5.4.2.>.2.>.>.>.3.5.M ; $ 3 @.~ G E W K j 3.5.5.5.5.5.5.5.5.5.5.5.5.5.5.5.7.w.w.0.5.5.5.",
"5.5.5.<.8.8.6.5.5.5.5.5.5.5.5.5.5.5.N : # 3 [ T D R E A s 2.5.5.5.5.5.5.5.5.5.5.5.5.5.5.5.5.5.5.5.5.5.5.",
"5.5.5.1.<.8.1.5.5.5.5.5.5.5.5.5.5.5.Z 1 $ # > T D E A - l 3.5.5.5.5.5.5.5.5.5.5.5.5.5.5.5.5.5.5.5.5.5.5.",
"5.5.5.1.<.<.6.5.5.5.5.5.5.5.5.5.5.5.5.B = # * L S H - l m >.5.5.5.5.5.5.7.9.7.5.5.5.4.4.6.5.5.5.5.5.5.5.",
"5.5.5.5.5.5.5.5.5.5.5.5.5.5.5.5.5.5.5.C - % * q q = h n n 2.5.5.5.5.5.7.y.y.r.5.5.5.<.8.<.1.5.5.5.5.5.5.",
"5.5.5.5.5.5.5.5.5.5.5.5.5.5.5.5.5.5.5.3.a % . @ % g n n n 3.5.5.5.5.5.7.y.y.y.5.5.5.<.<.8.1.5.5.5.5.5.5.",
"5.5.5.5.5.5.5.5.5.5.5.5.5.5.5.5.5.5.5.5.3.h O o p n m m n 2.5.5.5.5.5.7.y.y.r.5.5.5.<.<.8.1.5.5.5.5.5.5.",
"5.5.5.5.5.5.5.5.5.5.5.5.5.5.5.5.5.5.5.5.3.2.v k v m 5.5.5.5.5.5.5.5.5.5.5.5.5.5.5.5.4.5.5.5.5.5.5.5.5.5.",
"5.5.5.5.5.5.5.5.5.5.5.5.5.5.5.5.5.5.5.5.5.5.2.n m m 5.5.5.5.5.5.5.5.5.5.5.5.5.5.4.5.5.5.5.5.5.5.5.5.5.5.",
"5.5.5.3.5.5.5.5.5.5.5.5.5.5.5.5.5.5.5.5.5.5.3.m m m 2.5.5.5.5.5.7.5.5.5.5.5.5.5.5.5.5.5.5.5.5.5.5.5.5.5.",
">.>.>.2.5.5.5.5.5.5.5.5.5.<.7.<.5.5.5.2.m >.m m C >.5.5.5.5.5.5.5.5.5.5.5.5.5.5.5.5.5.5.5.5.5.5.3.m C C ",
"n n >.5.5.5.5.5.5.5.5.5.5.<.8.<.2.5.5.>.m m m m m m 5.5.5.5.5.5.5.5.5.5.5.5.5.5.5.5.5.5.5.5.5.5.5.m C V ",
"n n n 2.5.5.5.5.5.5.5.5.5.<.8.8.4.5.5.>.n n n n n m 5.5.5.5.5.5.5.5.5.5.5.5.5.5.5.5.5.5.5.5.5.5.3.n n n ",
"n n n 7.7.w.7.5.5.5.7.5.5.1.1.1.5.5.5.2.>.Z >.2.>.2.2.5.5.4.6.1.5.5.5.5.5.5.5.5.5.5.5.5.5.2.2.2.>.,.:.:.",
"m m n e.y.y.w.5.5.5.5.5.5.5.4.5.5.5.5.5.5.5.5.5.5.5.5.5.5.<.8.8.6.5.5.5.5.5.5.5.5.5.5.5.5.2.n n V 8.8.8.",
"m n n e.y.y.w.5.5.5.5.5.5.5.5.5.5.5.5.5.5.5.5.5.5.5.5.5.5.<.8.8.6.5.5.5.5.5.5.5.5.5.5.5.5.>.m m V 8.8.8.",
"m m n q.e.e.6.5.5.5.5.5.5.5.5.5.5.5.5.5.5.5.5.5.5.5.5.5.5.7.9.<.6.5.5.5.5.5.7.5.5.5.5.7.5.5.n n m ,.,.,.",
"m m n n n n >.5.5.5.5.5.5.5.5.5.5.5.7.5.5.7.5.5.5.5.5.5.5.5.5.5.5.5.5.5.5.5.5.5.5.5.5.5.5.5.n n n n n n ",
"m m V >.n n 2.5.5.5.5.5.5.5.5.5.5.5.5.5.5.5.5.5.5.5.5.5.5.5.5.5.5.5.5.5.5.5.5.5.5.5.5.5.5.2.m m m m m V ",
"V V V m n n 2.5.5.5.5.5.5.5.5.5.5.5.5.5.5.5.5.5.5.5.5.5.5.5.5.5.5.5.5.5.5.5.5.5.5.5.5.5.5.>.m m m m V m "
};
