/* XPM */
static char *out[] = {
/* columns rows colors chars-per-pixel */
"52 52 160 2 ",
"   c #0B271E",
".  c #0F291E",
"X  c #142C1E",
"o  c #072721",
"O  c #0A2521",
"+  c #072B24",
"@  c #0B2A24",
"#  c #112720",
"$  c #102A24",
"%  c #112F28",
"&  c #073027",
"*  c #1B3222",
"=  c #19342F",
"-  c #103430",
";  c #103C32",
":  c #1E3A32",
">  c #243721",
",  c #243923",
"<  c #2B3E23",
"1  c #303E21",
"2  c #213C37",
"3  c #174A39",
"4  c #2B4826",
"5  c #2D492E",
"6  c #344524",
"7  c #394722",
"8  c #384824",
"9  c #364F29",
"0  c #3A5B2F",
"q  c #29453E",
"w  c #2D5433",
"e  c #23523D",
"r  c #2A5638",
"t  c #345637",
"y  c #404F25",
"u  c #465326",
"i  c #4A5C2D",
"p  c #59682C",
"a  c #5C6C2D",
"s  c #5F702E",
"d  c #476835",
"f  c #4C6A37",
"g  c #526C35",
"h  c #5B7233",
"j  c #606D2C",
"k  c #64732E",
"l  c #69772F",
"z  c #677A2F",
"x  c #687B2F",
"c  c #657132",
"v  c #6A7630",
"b  c #677B30",
"n  c #697C30",
"m  c #727E32",
"M  c #135040",
"N  c #1A5344",
"B  c #17594E",
"V  c #185E51",
"C  c #2F4A46",
"Z  c #324B46",
"A  c #374F4C",
"S  c #215D49",
"D  c #3A554E",
"F  c #186B5B",
"G  c #2C674F",
"H  c #3B6E47",
"J  c #216A56",
"K  c #28775E",
"L  c #1B6D61",
"P  c #1D7260",
"I  c #177A6A",
"U  c #1A7C6A",
"Y  c #2E7A68",
"T  c #4D5E57",
"R  c #506963",
"E  c #55726B",
"W  c #657977",
"Q  c #648137",
"!  c #6E8233",
"~  c #62863C",
"^  c #6F8738",
"/  c #658A3E",
"(  c #6D8A3A",
")  c #748433",
"_  c #798734",
"`  c #758A37",
"'  c #7C8A35",
"]  c #718A39",
"[  c #7A8E3C",
"{  c #1F856C",
"}  c #1C8372",
"|  c #1E8F7B",
" . c #258373",
".. c #298676",
"X. c #238D75",
"o. c #23947B",
"O. c #2F907B",
"+. c #608A40",
"@. c #768F42",
"#. c #799346",
"$. c #709049",
"%. c #799448",
"&. c #739651",
"*. c #779A54",
"=. c #789850",
"-. c #769D5A",
";. c #55827F",
":. c #1F9B81",
">. c #398F80",
",. c #2F9383",
"<. c #239B86",
"1. c #2F9E89",
"2. c #349887",
"3. c #369788",
"4. c #369F8C",
"5. c #25A48B",
"6. c #25A98D",
"7. c #36AB94",
"8. c #3BAB95",
"9. c #38AE98",
"0. c #728987",
"q. c #4AA995",
"w. c #4DAC9B",
"e. c #5BAEA0",
"r. c #45B4A3",
"t. c #47B8A7",
"y. c #55B5A3",
"u. c #5CBDA9",
"i. c #5ABFB0",
"p. c #61B7AA",
"a. c #64C0AD",
"s. c #6EC4B5",
"d. c #72C4B6",
"f. c #7AC4B5",
"g. c #7BC8B8",
"h. c #9FB6B4",
"j. c #9ABFB8",
"k. c #A3B0AC",
"l. c #A6B7B7",
"z. c #B2BBBC",
"x. c #86C7B6",
"c. c #83C6B8",
"v. c #89C6BA",
"b. c #83C8BD",
"n. c #8DC9BF",
"m. c #94C5BB",
"M. c #99CABF",
"N. c #ADC1BF",
"B. c #B5BDC0",
"V. c #9EC7C2",
"C. c #96CDC0",
"Z. c #9EC9C4",
"A. c #AFC6C4",
"S. c #A3CAC4",
"D. c #AFC9C7",
"F. c #B4C4C3",
"G. c #B1C8C6",
"H. c #B3CDCA",
"J. c #C0CECE",
"K. c #CACFD3",
/* pixels */
"' ' ' ' ' ' ' ' ' ' ' ' ' ' ' ' #.-.-.#.' ' ' ' ' ' ' ' ' ' ' ' ' ' ' ' ' ' ' ' ' ' ! ! x x x x x x x b ",
"' ' ' ' ' ' ' ' ' ' ' ' ' ' ' ) %.-.-.#.' ' ' ' ' ' ' ' ' ' ' ' ' ' ' [ ' ' ' ' ' ' ! z x x z x x x b b ",
"' ' ' ' ' ' ' ' ' ' ' ' ' ' ' ' =.-.-.%.' ' ' ' ' ' ' ' ' [ ' ' ' ' ' ' ' ' ' ' ' ' x z x z x x x z x x ",
"' ' ' ( / / ] ' ' ) ! x m ' ' ' [ [ [ [ ' ' ' ' ' ' ' ' ' ( ( ( [ ' ' ' ' ' ' ' ' ' _ ) _ ) _ _ ) x x b ",
"' ' ' / +.+.] ' ' _ x x ! ' ' ' ' ' ' ' ' ' ' ' ' ' ' ' ' / / +.( ' ' ' ' ' ' ' ' ' ' ' ' ' ' ' ) z z z ",
"' ' ' / +.+.] ' _ _ x x x ' ' ' ' ' ' ' ' ' ' ' ' ' ' _ ' / +.+.] ' ' ' ' ' ' ' ' ' ' ' ' ' ' ' ) z z z ",
"' ' ' ] ( ] ] ' ' _ ) ) ) _ ' ' ] ] ( ` ' ' ' ' ' ' ! ! ! ] ( ( ' ' ' ' ' ' ' ' ' ' ' ' ' ' ' ' ' ! ) ) ",
"' ' ' ' ' ' ' ' ' _ _ ' _ ' ' ' / +.+.( ' ' ' ' ' _ z z ! ` ' ' ' ' ' ' ' ' ' ' ' ' ' ' ' ' ' ' ' ' ' ' ",
"' ' ' ' ' ' ' ' ' ' ' ' ' ' ' ' / +.+.( ' ' ' ' _ ' x x x ) ' ' _ ' ' ' ' ' ' ' ' ' ' ' ' ' ' ' ' ' ' ' ",
"' ' ' ' ' ' ' ' ' ' ' ' [ ' ' ' ] / / ] ' ' _ _ ) ) x x x ! ) ) _ ' ' ' ' ' ' ' ' ' ' ' ' ' ' ' ' [ [ [ ",
"' ' ' ' ' ' ' ' ' ' ' ' ' ' ' ' ' ' ' ' ' ' m a a z z x x x x x ) _ ' ' ' ' ' ' ' ' ' ' ' ' ' ' [ -.-.-.",
"' ' ' ' ' ' ' ' ' ' ' ' ' ' ' ' ' ' ' ' ' ' c * X 6 s z x x x x ) ' ' ' ' ' ' ' ' ' ' ' ' ' ' ' [ -.-.-.",
"' ' ' ' ' ' ' ' ' ' ' ' ' ' [ ' ' ' ' ' ' m y $ % @ * u z x x z ! _ ' ' ' ' ' ` ' ' ' ' ' ' ' ' [ -.-.*.",
"x ! x ) ' ' ' ' ' ' ' ' ' ' ' ' ' ' ' ' _ p T 0.: + @ X k x z b ) ' ' ' ' ' ' / +.+.' ' ' ' ' ' ' ' ' ' ",
"x x x ) ' ' ' ' ' ' ' ' ' ' ' ' ' ' ' ' ) 5 ;.K.k.D @ X k n z b ! ' ' ' [ ' ` / +.+.] ' ' ' ' ' ' ' ' _ ",
"x x z ) ' ' ' ' ' ' ' ' ' ' ' ' ' ' ' ' ) r e.G.J.z.C @ 8 l z z ) ' ' ' ' ' ' / +.+.` ' ' ' ' ' ' ` ' ' ",
") _ _ ' ' ' ' ' ' ` / / / ' ' ' ' ' ' ' n e y.C.m.F.D O $ j ) _ ' ' ' ' ' ' ' [ ' ` ' ' _ ) x n x ! x m ",
"' _ ' ' ' ' ' ' ' ` +.+./ ' ' ' ' ' ' ' i V t.g.c.j.E # O j ' ' ' ' ' ' ' ' ' ' ' ' ' ' _ ) x n x n n n ",
"' ' ' ' ' ' ' ' ' ` +.+./ ` _ ' ' ' ' ' 0 ,.t.c.C.x.A.Z   1 m ' ' ' ' ' ' ' ' ' ' ' ' ' ' ) z n x n n n ",
"%.#.%.' ' ' ' ' ' ` ( ^ ( ) ! ) ' _ ' _ 5 1.i.S.M.x.H.A     c ' ' ' ' ' ' ' ' ' ' ' ' ' _ ) z n n n n n ",
"-.-.-.[ ' ' ' ' ' ' ' ' ' x b z _ ' ' l 3 4.w.S.M.x.S.W # . j ' ' ' ' ' ' ' ' ' ' ' ' ' ' ) x n n n n n ",
"-.-.-.[ ' ' ' ' ' _ ' ' _ n x z _ ' ' a Y 9.3.b.S.H.N.F.Z @ < m ' ' ' ' ' ' ' ' ' ' ' ' _ ! x x x x x b ",
"=.=.=.[ ' ' ' ' ' ' ) ) ) n n z m ) _ a J 7.1.s.c.H.m.F.Z @ # k ' ' ' ' ' ' ' _ ) _ ' _ ' ) n n n z n n ",
"' ' ' ' ' ' ' ' ' ) x x x z z z n n b p N Y 2.s.d.c.m.A.Z @ X l ' ' ' ' ' _ _ n n b _ ' ' _ ' ' _ z n b ",
"' ' ' ' ' ' ' ' ' ) z x n b n b b n z a S L >.s.d.f.D.N.q @ X l ' ' ' ' ' ' _ n x x ) ' ' ' ' ' ) x x n ",
"' ' ' ' _ _ _ _ ' ) x x b n x z x n n m H o.3.s.s.f.H.m.R   X l ' ' ' ' ' ' _ n n x ) ' ' ' ' ' ) n x x ",
"' ' ' n n n x x n x z n x b n z ) ' _ _ d o.1.p.s.f.Z.m.F.: @ 6 ) ' ' ' ' ' ' n n x _ ' ' ' ' ' ' ' _ ) ",
"' ' ' ! n x x x n b n z n n b z ) ' ' _ g  . ...p.d.v.m.B.2   . v ' ' ' ' ' ' v n x ) ' ' ' ' ' ' ' ' ' ",
"' ' ' x z x x x x x x n b n n z ) ' ' ' h P I }  .y.w.v.N.: o . v ' ' ' ' ' ' x x x ) ' ' ' ' ' ' ' ' ' ",
"' ' ' ) ) ) ) ' ) ) z n n x b z ' ' ' ' ^ G U 5.}  .8.V.z.=   $ m ' ' ' ' _ ' ) ) ) ' ' ' [ =.=.%.' ' ' ",
"' ' ' ' ' ' ' ' ' ) x x n b n z ) ' ' ' ) t I 5.5.| r.n.l.= @ X ) ' ' ' ' ' ' ' ' ' ' ' ' %.-.-.*.' ' ' ",
"' ' ' ' ' ' ' ' ' ) z b b z z z ) ' ' ' ' f { 6.6.5.9.a.h.% O > ) ' ' ' ' ' ' ' ' ' ' ' ' %.-.-.=.' ' ' ",
"' ' ' ` ( ( ` ' ' ' ) ! ) ! ! ) ' ' ' ' ' ) K 5.5.<.} u.l.@ @ , ) ' ' ' ' ' ' _ ' ' ' ' ' @.%.%.#.' ' ' ",
"' ' ' / +.+.( ' ' ' ' ' ' ' ' ' ' ' ' ' ' ' w X.5.<.I q.0.@ o < m ' ' ' ' ' ' ' ' ' ' ' ' ' ' ' ' ' ' ' ",
"' ' ' / / +.] ' ' ' ' ' ' ' ' ' ' ' ' ' ' ' a 3 o.:.I O.- @ X u ) ' ' ' ' ' ' ' ' ' ' ' ' ' ' ' ' ' ' ' ",
"' ' ' ( / / ` ' ' ' ' ' ' ' ' ' ' ' ' ' ' ' _ i M X.I ..@   6 ) ' ' ' ' [ [ [ ' ' ' ' ` ` ' ' ' ' ' ' ' ",
"' ' ' ' ' ' ' ' ' ' ' ' ' ' ' ' ' ' ' ' ' _ ) z 9 M F B @ O y ' ' ' ' [ -.-.-.' ' ' / +.+.( ' ' ' ' ' ' ",
"' ' ' ' ' ' ' ' ' ' ' ' ' ' ' ' ' ' ' ' ' ' ) x k 4 ; & O , j ' ' ' ' @.-.-.-.' ' ' / +.+.( ' ' ' ' ' ' ",
"' ' ' ' ' ' ' ' ' ' ' ' ' ' ' ' ' ' ' ' ' ' _ x b s , X 7 l ' ' ' ' ' @.-.-.*.' ' ' ( +./ ( ' ' ' ' ' ' ",
"' ' ' ' ' ' ' ' ' ' ' ' ' ' ' ' ' ' ' ' ' ' ) x n n n v _ ' ' ' ' ' ' ' ' ' ' ' ' ' ` ' ' ' ' ' ' ' ' ' ",
"' ' ' ' ' ' ' ' ' ' [ ' ' ' ' ' ' ' ' ' ' ' ) x x x _ _ ' ' ' ' ' ' ' ' ' ' ' ' ' ' ' ' ' ' ' ' ' ' ' ' ",
"' ' ' ' ' ' ' ' ' ' ' ' ' ' ' ' ' ' ' ' ' _ ) x x z ' ' ' ' ' ' ' ' ' ' ' ' ' ' ' ' ' ' ' ' ' ' ' ' ' ' ",
"! x x ) ' ' ' ' ' ' ' ' [ ( ] ( ` ' ' ) ! x ! z x ! ` ' ' ' ' ' ' ' ' ' ' ' ' ' ' ' ' ' ' ' ' ' ' n n n ",
"x x ! ' ' ' ' ' ' ' ' ' ' +.+.+.` ' ' ! z z z x x x ' ' ' ' ' ' ' ' ' ' ' ' ' ' ' ' ' ' ' ' ' ' ) x n b ",
"x z x ) ' ' ' ' ' ' ' ' ' / +.+.` ' ' ) z k z z z x ) ' ' ' ' ' ' ' ' ' ' ' ' ' ' ' ' ' ' ' ' ' _ z z z ",
"x x z [ %.%.[ ' ' ' ' ' ' ( ( ( ' ' ' ) ) ) ! ) ! ) ' ' [ ] ] ] [ ' ' ' ' ' ' ' ' ' ' ' ' ) ) ) ! ~ Q Q ",
"z z z &.-.-.%.' ' ' ' ' ' ' ` ' ' ' _ ' _ _ ' ' ' ' ' ' ' ( +.+.[ ' ' ' ' ' ' ' ' ' ' ' ' ) x z b +.+.+.",
"! z z &.-.-.%.' ' ' ' ' ' ' ' ' ' ' ' ' ' ' ' ' ' ' ' ' ' / +.+.( ' ' ' ' ' ' ' ' ' ' ' ' ! z z b +.+.+.",
"z z z $.&.&.@.) ' ' ' ' ' ' ' ' ' ' ' ' ' ' ' ' ' ' ' ' ' [ [ / ] [ ' ' ' ' ' ' ' ' ' ' ' _ z x x ~ ~ ~ ",
"x x x x z z ) ' ' ' ' ' ' ' ' ' ' ' ' ' ' ' ' ' ' ' ' ' ' ' ' ' ' ' ' ' ' ' ' ' ' ' ' [ ' ) z z z x x x ",
"x x x x z z ! ' ' ' ' ' ' ' ' ' ' ' ' ' ' ' ' [ ' ' ' ' ' ' ' ' ' ' ' ' ' ' ' ' ' ' ' ' ' ) x x x x b b ",
"x x x b z z ) ' ' ' ' ' ' ' ' ' ' ' ' ' [ ' ' ' ' ' ' ' ' ' ' ' ' ' ' ' ' ' ' ' ' ' ' ' ' ) z x x x b x "
};
