/* XPM */
static char *out[] = {
/* columns rows colors chars-per-pixel */
"52 52 77 1 ",
"  c #082722",
". c #072823",
"X c #0B2B24",
"o c #112E22",
"O c #153124",
"+ c #1C3426",
"@ c #1E3924",
"# c #12322C",
"$ c #1C3A36",
"% c #213426",
"& c #273F26",
"* c #2E3D20",
"= c #213D2A",
"- c #233F3C",
"; c #2F4427",
": c #274428",
"> c #324523",
", c #374927",
"< c #3B4C27",
"1 c #374929",
"2 c #254934",
"3 c #455626",
"4 c #43572C",
"5 c #4A5A2A",
"6 c #53632B",
"7 c #5D6C2C",
"8 c #5E712D",
"9 c #4A673F",
"0 c #546D32",
"q c #5D6A30",
"w c #526E3F",
"e c #5C7232",
"r c #577438",
"t c #64762F",
"y c #677A2F",
"u c #687B2F",
"i c #657430",
"p c #697631",
"a c #677B30",
"s c #697B30",
"d c #2F4945",
"f c #314D49",
"g c #255142",
"h c #255549",
"j c #29584F",
"k c #33504C",
"l c #2D5A53",
"z c #355A55",
"x c #3C5955",
"c c #496745",
"v c #4A6A54",
"b c #4E6F5C",
"n c #546651",
"m c #5C6B54",
"M c #537156",
"N c #52705E",
"B c #648137",
"V c #6E8233",
"C c #62863C",
"Z c #658A3E",
"A c #6D8A3A",
"S c #748433",
"D c #788734",
"F c #758A37",
"G c #7C8A35",
"H c #71833A",
"J c #718A39",
"K c #7A8E3C",
"L c #608A40",
"P c #768F42",
"I c #799346",
"U c #709049",
"Y c #799448",
"T c #739651",
"R c #779A54",
"E c #789850",
"W c #769D5A",
/* pixels */
"GGGGGGGGGGGGGGGGKWWIGGGGGGGGGGKGGGGGGGGGGGVVuuyuuuys",
"GGGGGGGGGGGGGGGGEWWIGGGGGGGGGGGGGGGGGGGGGGVuuuyusuas",
"GGGGGGGGGGGGGDGDRWWYGGGGGGGGGKGGGGGGGGGGGGuyyyyyyyss",
"GGGAZZJGDSVuSDGGKKKGGGGGGGGGGAAAKGGGGGGGGGGSDDSDSysa",
"GGGZLLJGGDuuVGGGGGGGGGGGGGGGGALLAGGGGGGGGGGGGGGGSyyy",
"GGGZLLJGDDuuuGGGGGGGGGGGGGGGGZLLAGGGGGGGGGGGGGGGSyyy",
"GGGJJAJGGDSSSGGGJAAFGGGGGDVVVJAAGGGGGGGGGGGGGGGGGVSS",
"GGGGGGGGDDDDGGGGZZLAGGGGGDyyVFGGGGGGGGGGGGGGGGGGGGGG",
"GGGGGGGGGGGGGGGGZLZAGGGGGDuuySGGGGGGGGGGGGGGGGGGDGGG",
"GGGGGGGGGGGGGGKGAZZJGGDSSSyyuSSSSGGGGGGGGGGGGGGGGKKK",
"GGGGGGGGGGGGGGGGGGGGGGSst67yuuuuVGGGGGGGGGGGGGGGKWWW",
"GGGGGGGGGGGGGGGGGGGGGGSp3o<yuuuuSGGGGGGGGGGGGGGGKWWW",
"GGGGGGGGGGGGGGKGGGGGGGDp&X*puyyySGGGGGGFGGGGGGGGKWWW",
"uVuSGGGGGGGGGGGGGGGGGGGpO 4GDVyyVGGGGGGZLLGGGGGGGGGG",
"uuySGGGGGGGGGGGGGGGGGGGpo 9sGVyyVGGGGGGLLLJGGGGGGGGS",
"uuySGGGGGGGGGGGGGGGGGGGpoOmDGuyyFGGGGGGZLLFGGGGGGGGG",
"DSDGGGGGGFZZZGGGGGGGGGGqo#nDDDDDGGGGGGGGGFGGDSuuSsSs",
"GGGGGGGGGFZLZGGGGGGGGGG6X#nsGGGDGGGGGGGGGGGGDSyuyyys",
"GDGGGGGGGFZLZFGDGGGGGGG5X$NDGGGGGGGGGGGGGGGGGSysyyss",
"IIIKGGGGGFAAAVVSGGGGGGG<X-bsGGGGGGGGGGGGGGGGGSysssss",
"WWWKGGGGGGGGDysyGGGGGGG1 -bDGGGGGGGGGGGGGGGGGSysssss",
"WWWKGGGGGGGDGssyDGGDGGD;.dbDGGGGGGGGGGGGGGGGDSyyyysa",
"EEEKGGGGGGSSSssySSDDGGs:XdvHGGGGGGGGGGGDSSGGDSsssyay",
"GGGGGGGGGSyyyyyyyyySGGD=.fnDGGGGGGGGGGGuasSGGGGGDyss",
"GGGGGGGGGSyussssssssGGH=.fvDGGGGGGGGGGGuyuDGGGGGSuyu",
"GGGGGDDDGSyysssyussSGGs=.kMDGGGGGGGGGGGsyuSGGGGGDsuy",
"GGGuuuuusyysssayDGGDGGp%.xvDGGGGGGGGGGGsyuSGGGGGGSGG",
"GGGVuuuussssssyySGGGGGp+.zcDGGGGGGGGGGGuuuDGGGGGGGGG",
"GGGVuuuuyyysssyyDGGGGGp+Xj9GKGGGGGGGGGGyuyDGGGGGGGGG",
"GGGSSDSSSSyyssyyDDGGGGp+XjwGGGGGGGGGGGGSDSDGGITEYGGG",
"GGGGGGGGGSyssyyyDGGGGGp%XlrGGGGGGGGGGGGGGGGGGIWWRGGG",
"GGGGGGGGGSyaasyyDGGGGGp%XjmGGGGGGGGGGGGGGGGGGIWRRGGG",
"GGGFAAFGGGVSVSVSGGGGGGi+XhrSSDGGGGGGGGGGGGGGGKIIIGGG",
"GGGZLLAGGGGGGGGDGGGGGGi+Xg0ayDDGGGGGGGGGGGGGGGGGGGGG",
"GGGZLLJGGGGGGGGGGGGGGGp+X2eayDGGGGGGGGGGGGGGGGGGGGGG",
"GGGAAZJGGGGGGGGGGGGGGGp%.2iaySGGGGGGKPKGGGKFJGGGGGGG",
"GGGGGGGGGGGGGGGGGGGGGGs@.:taySDGGGGKWWRGGGZLZAGGGGGG",
"GGGGGGGGGGGGGGGGGGGGGGs%X>asuSGGGGGKWWWGGGZLLZGGGGGG",
"GGGGGGGGGGGGGGGGGGGGGGS,o3ssuDGGGGGKWWRGGGZZZAGGGGGG",
"GGGGGGGGGGGGGGGGGGGGGGS86ySGGGGGGGGGGGGGGGGGGGGGGGGG",
"GGGGGGGGGGGGGGGGGGGGGGGuuuGGGGGGGGGGGGGGGGGGGGGGGGGG",
"GGGDGGGGGGGGGGKGGGGGGGSuuVSGGGGGGGGGGGGGGGGGGGGGGGGG",
"VuVSGGGGGGGGGZJAFGGSuuuuuaGGGGGGGGGGGGGGGGGGGGGGGsuV",
"uuVFGGGGGGGGGZLZFGGSyuuuauGGGGGGGGGGGGGGGGGGGGGGSyua",
"uuySGGGGGGGGFZLLFGGSyyyyuuFGGGGGGGGGGGGGGGGGGGGGSayy",
"uuuKIIKGGGGGGAAASGGSSSuSSSGGGJJAKGGGGGGGGGGGGGVVVBBB",
"uuyTWWIGKGGGGGGGGGGGDGGGDGGGGZLLJGGGGGGGGGGGGSuuaLLL",
"uuyTWWIGGGGGGGGGGGGGGGGGGGGGGALLJGGGGGGGGGGGGVyyaLLL",
"uuyUTUIGGGGGGGGGGGGGGGGGGGGGGKKLJGGGGGGGGGGGGGyuuCLC",
"uuuyyyVGGGGGGGGGGGGGGGGGGGGGGGGGGGGGGGGGGGGGGDyyyuyu",
"uuaayySGGGGGGGGGGGGGGGGGGKGGGGGGGGGGKGGGGGGGGSyuuuua",
"uuauyySDGGGGGGGGGKGGGGGGGGGGGGGGGGGGGGGGGKGGGSyyuuuu"
};
