/* XPM */
static char *out[] = {
/* columns rows colors chars-per-pixel */
"52 52 100 2 ",
"   c #010102",
".  c #060E06",
"X  c #0A0C06",
"o  c #0C0D08",
"O  c #071206",
"+  c #0A1306",
"@  c #0C1907",
"#  c #0C1908",
"$  c #121408",
"%  c #111A0A",
"&  c #0E2105",
"*  c #0E2309",
"=  c #122106",
"-  c #142907",
";  c #142509",
":  c #152E09",
">  c #183007",
",  c #17300C",
"<  c #233D12",
"1  c #373D17",
"2  c #383E19",
"3  c #214706",
"4  c #2B540F",
"5  c #2C4E16",
"6  c #3B401A",
"7  c #356615",
"8  c #356718",
"9  c #3B6E18",
"0  c #3C7515",
"q  c #3E7E12",
"w  c #42491D",
"e  c #407E11",
"r  c #435224",
"t  c #4A5321",
"y  c #49572A",
"u  c #5E6E2D",
"i  c #577B3B",
"p  c #5E7A39",
"a  c #636E2C",
"s  c #65712E",
"d  c #6A762E",
"f  c #6D792F",
"g  c #657E35",
"h  c #6A7C32",
"j  c #717E31",
"k  c #438E0F",
"l  c #4B940C",
"z  c #428317",
"x  c #458D14",
"c  c #458319",
"v  c #499614",
"b  c #4A9B13",
"n  c #4B9618",
"m  c #50AA0F",
"M  c #4FA911",
"N  c #50A714",
"B  c #51A911",
"V  c #64BE1B",
"C  c #5F8A3F",
"Z  c #6F8132",
"A  c #63843A",
"S  c #648A3E",
"D  c #6C8A3B",
"F  c #748434",
"G  c #788634",
"H  c #778A37",
"J  c #7D8B36",
"K  c #748A39",
"L  c #7C8D3B",
"P  c #7B903E",
"I  c #60C40F",
"U  c #65CE0F",
"Y  c #68DE07",
"T  c #6ADE0C",
"R  c #65CF10",
"E  c #66C41C",
"W  c #69C818",
"Q  c #6DE707",
"!  c #6DE807",
"~  c #6CE50C",
"^  c #70E90C",
"/  c #73FE01",
"(  c #79FC0E",
")  c #73EE11",
"_  c #7AFC14",
"`  c #6BC223",
"'  c #608A40",
"]  c #758C42",
"[  c #7C8F40",
"{  c #779044",
"}  c #7A9245",
"|  c #719048",
" . c #7A9549",
".. c #79984E",
"X. c #749651",
"o. c #779B54",
"O. c #789A53",
"+. c #779E5A",
"@. c #789D5A",
"#. c #808D38",
/* pixels */
"J J J J J J J J J J J J J J J J O.@.@. .J J J J J J J J J J J J J J J J J J J J J #.j f h h h h h h h g ",
"J J J J J J J J J J J J J J J J O.@.@. .J J J J J J J J J J J J J J J #.J J J J J J Z h h h h h h h h h ",
"J J J J J J J J J J J J J #.J J O.+.@. .J J J L J J J J J J J J J J J #.J J J J J J h h h h h h h h h h ",
"J J J D ' S K J J J h h h t t t y y y t t t t t t t t t t r r r r t t t t t j J J J J G G G F J F h h h ",
"J J J S ' S K J J G h h u                                                   a J J J J J J J J J F h h g ",
"J J J S ' ' D J J G h h u                                                   a J J J J J J J J J J h h h ",
"J J J K K D K J J G F F s     q T T T T T T T T T T T T T T T ~ T T T v     a J J J J J J J J J G F Z F ",
"#.J J J J J J J J J J J j     k / / / / / / / / / / / / / / / / / / / m     a J J J J J J J J J J J J J ",
"J J J J J J L J J J J J h     k / / / / / / / / / / / / / / / / / / / B     a J J J J L J J J J J J J J ",
"J J J J J J J J J J L J j     k / / / / / / / / / / / / / / / / / / / N     a J J J J J J J J J L L } } ",
"J J J J J J J J J J #.J j     k / / / / / / / / / / / / / / / / / / / N     a J J J J J J J J J L +.o.+.",
"J J J J J J J J J J J J j     # ; ; ; ; x / / / / / / / / / N ; ; ; ; %     a J J J J J J J J J L +.+.+.",
"J J J J J J J J J J J J f               q / / / / / / / / / n               s L J J J J J J J J L +.@.@.",
"h h h G J J J J J J J J j               q / / / / / / / / / b               a ' C S K J J J J J J L L J ",
"h h h F J J J J J J J J j               q / / / / / / / / / b               u ' C C K J J J J J J J J J ",
"d h h F J J J J J J J J f               q / / / / / / ( / / b               a ' C C K J J J J J J J J J ",
"F F J J #.J J J J J S S p     0 W R R R ~ / _ , : > > > ) / ^ U R U U x     a J K K J J J F F Z F h Z Z ",
"J J J J J J J J J K S C i     k / / / / / / (           ) / / / / / / M     a J J J J J G F f h h g h h ",
"J J J J J J J J J K C C i     k / / / / ~ R W           V R T / / / / M     a J J J J J J F h h h h h h ",
"}  .} L J J J J J K D D g     k / / / / c                   8 / / / / M     a J J J L J J F h h h h h h ",
"+.+.+.} J J J J J J J J j     k / / / / z     .             8 / / / / M     s J J J J J J F h h h h h h ",
"+.+.+.P J J J J J J J J h     k / / / / z     ` I I I E o   8 / / / / M     a J J J J J J F h h h h h h ",
"O...O.P J J J J J J G G f     k / / / / z     _ / / / ( O   8 / / / / M     a G F G G J J F Z h h h g h ",
"J J J J J J J J J F h h u     k / / / / x & * _ / / / ( , # q / / / / m     a h h h F J J J J J F h h h ",
"J J J J J J J J J F h f u     k / / / / / / / / / / / / / / ( / / / / B     a h h h F J J J J J J h h h ",
"J J J J G J G J H F h h u     k ( / / / / / ( / / / / ( / / / / / / / B     a h h h F J J J J J F h h h ",
"J J J Z h Z f f h h h h u     - 3 3 3 3 3 3 3 3 3 3 3 3 3 3 3 3 3 3 3 ,     a h h h G J J J J J J J H G ",
"J J J f h h h Z h h h h u                                                   a h h h F J J J J J J J J J ",
"J J J Z h h h h h h h h u . X X X X     . # @ @ @ @ @ @ # # +     X X o o + s f h h F J J J J J J J J J ",
"J J J G F H F F G F h h h d h h J G     e / / / / / / / / / b     h J J L J J G F G J J J } .. . .J J J ",
"J J J J J J J J J F h h h h h h G G     q / / / / / / / / / b     f J J J J J J J J J J L } +.+.O.J J J ",
"J J J J J J J J J F h h h h h h G G     q / / / / / / / / / b     f J J J J J J J J J J J } +.+.O.J J J ",
"J J J F D D H J J J F F F Z F Z J G     q / / / / / / / / / v     d J J J J J J J J J J J P  . .} J J J ",
"J J J S S C D J J J J J J J J J J G     q / / / / / / / / / b     f J J L J J J J J J J J J J J J J J J ",
"J J J S S C D J J J J J J J J J J G     q / / / / / / / / / b     f J J J J J J J J J J J J J J J J J J ",
"J J J D S S K J J J J J J J J J J F     q / / / / / / / / / b     f J J P L L J J J J K H J J J J J J J ",
"J J J J J J J J J J J J J J J J J G     q / / / / / / / / / b     f J L +.+.+.L J J S ' C D J J J J L J ",
"J J J J J J J J J J J J J J J J J G     q / / / / / / / / / b     f J P +.+.o.J J #.S ' C D J J J J J J ",
"J J J J J J J J L J J J J J J J J G     q / / / / / / / / / v     f J L +.+.o.L J J S C ' D J J J J J J ",
"J J J J J J J J J J J J J J J J J F     q / / / / / / / / / v     f J J L J L J J J J J J J J J J J J J ",
"J J L J J J J J J J J J J J J J J G     q / / / / / / / / / b     j J J J J G J J J J J J J J J J J J J ",
"J J J J J J J J J #.J J G w w w w w     q / / / / / / / / / b     2 w w w w j J J J J J J J J J J J J J ",
"F h j G J J J J J J J J j               q / / / / / / / / / b               a J J J J J J J J J J h h Z ",
"h h h G J J J J J J J J f     . @ @ % @ q Q Q Q ! ! Q Q Q Q n @ @ @ @ +     a J J J J J J J J J J h h h ",
"h h h F J J J J J J J J f     e T Y Y T c = = = = = = = = ; 9 Y Y Y Y v     a J J J J J J J J J G h h h ",
"h h h ] } } [ J J J J J f     k / / / / c                   7 / / / / B     a J J J J J J G F F F A A g ",
"h h h X.+.+. .J J J J J j     4 l l l l 5     6 1 1 1 1     < l l l l 7     s J J J J J J F f h g ' C C ",
"h h h X.+.+. .J J J J #.j                     J J J J J X                   s J J J J J J Z h h g ' C C ",
"h h h | X.X.{ J J J J J h X X X X X X X X X X #.J J J #.$ X X X X X X X X X a J J J #.J J F h h g A C A ",
"h h h h g h F J L J J J J d d d d d d d d d d G J J J #.d d d d d d d d d d G J J J J J J F h h h h h h ",
"h h h h h h F J J J J J J J J J J J J #.J J #.J J J J J J J J J J J J J J J #.J J J J J J F h h h h h g ",
"h g h h h h Z J J J J J J J J J J J J J J J J J J J J J J J J J J J J J J J J J J J J J J j h h h h h h "
};
