/* XPM */
static char *_20917f0c6274230a478abaf009ef37fEOyRwvoN4lSFHZzV[] = {
/* columns rows colors chars-per-pixel */
"52 52 106 2 ",
"   c #4201AF",
".  c #4400B4",
"X  c #4600BA",
"o  c #4801BE",
"O  c #4700C0",
"+  c #4900C3",
"@  c #4D00CB",
"#  c #5105C7",
"$  c #5203CD",
"%  c #4F00D2",
"&  c #5201D4",
"*  c #5806D3",
"=  c #5C0AD3",
"-  c #5400DC",
";  c #5A03DC",
":  c #5F0ADB",
">  c #610DD7",
",  c #620BDC",
"<  c #690EDF",
"1  c #6610DE",
"2  c #6B13DF",
"3  c #5600E2",
"4  c #5A01E4",
"5  c #5F08E0",
"6  c #5700E9",
"7  c #5C00EB",
"8  c #5E00F2",
"9  c #5F00F8",
"0  c #6106E4",
"q  c #6209E3",
"w  c #690FE6",
"e  c #6203EC",
"r  c #6B04EF",
"t  c #6609EC",
"y  c #6A0CEC",
"u  c #6B12E4",
"i  c #6E12EB",
"p  c #7314ED",
"a  c #7619EE",
"s  c #7818ED",
"d  c #6301F4",
"f  c #6B03F6",
"g  c #6709F0",
"h  c #6C0DF3",
"j  c #6501FB",
"k  c #6B03FD",
"l  c #6E0AFC",
"z  c #7103F6",
"x  c #710EF5",
"c  c #7303FD",
"v  c #7A03FD",
"b  c #720CFD",
"n  c #780FFC",
"m  c #6F11F3",
"M  c #7312F4",
"N  c #7915F5",
"B  c #7B1AF4",
"V  c #7611FD",
"C  c #7A15FE",
"Z  c #7C14FE",
"A  c #7C16FF",
"S  c #7C19F9",
"D  c #7F1BFD",
"F  c #7C18FE",
"G  c #7D19FE",
"H  c #801FF6",
"J  c #821BFC",
"K  c #8019FF",
"L  c #831EFD",
"P  c #831DFE",
"I  c #841FFE",
"U  c #891EFE",
"Y  c #8425EF",
"T  c #8423F5",
"R  c #8622F6",
"E  c #8925F1",
"W  c #8E2CF6",
"Q  c #8522FC",
"!  c #8621FF",
"~  c #8B26F9",
"^  c #8B23FF",
"/  c #8924FD",
"(  c #8B27FE",
")  c #8C26FF",
"_  c #8D29FA",
"`  c #8F2AFC",
"'  c #8F28FF",
"]  c #912EF6",
"[  c #9127FF",
"{  c #932BFE",
"}  c #922EFE",
"|  c #942DFC",
" . c #942FFD",
".. c #9631FD",
"X. c #9531FF",
"o. c #9931FF",
"O. c #9A35FE",
"+. c #9C36FE",
"@. c #9D38FE",
"#. c #A13BFE",
"$. c #A33CFE",
"%. c #A53FFF",
"&. c #A741FE",
"*. c #AA42FE",
"=. c #AA44FE",
"-. c #B349FF",
/* pixels */
"+ y K )  .i % X X X . + 4 V o.] 3 O X X + 8 4 & % + o o X + e n ^ [ b & o X X X o & k #.{ e o X X o @ 3 ",
"o 0 V !  .R w % O o @ - g  .#.Y $ X X + @ d d 8 7 3 3 & % @ & y P ) ) h - + o + % 7 K %.' e o o o @ - 8 ",
"& 4 g F '  .~ a 1 : w B ( &. .i + o + & 4 k k j j j j d 7 3 - e V ) o.^ B u : q i ! O.#.H - o + @ - d j ",
"j 7 7 l P { O.O.' I ' #.=.@.N 3 + @ - 7 k c c k k k k k k k j j k K ) o.O.X.P ! X.&.%.' u @ + @ 3 d v c ",
"k k j d b F ( } X.O.+.@.O.N ; + @ 4 d k v v z k k x V n b b k k j j F ( } o.+.+.O.O._ h - @ & 8 j k v b ",
"V l k d 4 d l Z I ! K Z h * + + 3 d k k f ; $ @ + + $ 5 l Z n k k d ; t V F ! I Z x = @ @ & 7 j k f 4 & ",
"V V b k 7 - - ; , , : ; % O + & 8 j d 7 - + . . . . . + ; x Z V k j & & ; ; > : ; & + + % 6 j j e ; @ X ",
"t V Z b k & o X X X X . . X @ 4 j d 3 @ o . . . . X .   X 4 V Z n k 7 @ X X X . . X o @ - d j 7 & + X . ",
"@ i P C k 4 @ X X X X X X + 3 j d - + X . . . X o X . . . o e V F b k & X X X X . . o % 7 j 8 & + o X . ",
"X 5 V K b j - X X X X X o @ 7 j 6 @ o X . . + % & + X . . . @ p ^ V k & X X X X . . + - d d & + X . . X ",
". - x I C k ; X . . . o @ - d d @ X . . X & 4 7 7 3 @ o . . X < K Z b & X . . . X + @ 7 d 3 o X . . + - ",
". & h ^ Z k ; . . . X + @ 6 j 4 X . . . @ d k k j 8 - + X . . : C F n ; o . . . o @ & 8 6 @ . . . + 4 j ",
"X & h ( K b ; . X o o + + - 7 - X . . + 7 b k j 8 6 & + X X X : V P V ; o X X X o + & 8 - . . . . $ k k ",
"X - M ( K k - X X X X o + & 3 & X X . @ k ) n 6 % @ + o X X X 2 ! P V * X X X X X + % d - X X . + : C b ",
"+ 0 F ) K g & X X X . X + & - % X X X & n #.Z 3 + o o X X X & a { P b * X X X X X o @ 8 - X X X + q ) K ",
"; N ) ^ Z 5 @ o + + @ @ @ 3 6 & X X X & n *.^ e @ X . . o & h ! ' F l & o + @ @ @ @ & 8 - o X X + , }  .",
"n ( { P x & + @ - 3 6 7 6 8 j 7 + X . @ x %.X.N 7 @ o o $ h ( } ^ Z 8 % @ - 6 7 8 8 8 j 4 + o X X * ( *.",
" .} ^ N 5 3 7 d j j j j j k c f - @ + + 5 ' %.#.~ f d g M  .X.) F k 3 6 8 j j j j j j c d 3 @ + o $ x +.",
"} ( Z k d d j k l b b b b c v c d 6 & @ $ l X.*.#.} { { { o.{ F l j d j j k b b b b b c c f 7 - @ + ; S ",
"F M g j k k b b l t q q , 0 f c c j 7 & @ - p ~  .#.#.+. .^ N l j j k l b b l t , , q e f c k d - @ @ : ",
"e ; 4 k k n V h e & + o . o - d z k j 7 & + & 4 x E E R B h 7 7 d k b V V h 6 @ . . o @ 4 f k k 8 - @ + ",
"+ 3 k b C Z h & o . . X . . + @ & 8 j d 3 @ + + o o # $ @ + @ 4 k n Z b 5 + o X . . . o + & 7 j j 7 & + ",
"o 4 k V F h - o . . X X . . X o + & 8 j d & + X . . X o X o 3 f b Z Z q + . . . X . . . X o & 3 d d 3 @ ",
"% e b Z F : + . . X X X X . . . o @ - 7 j 3 @ X . . X X X + d b C F h $ . . . . X o . . . . o @ 3 d 7 & ",
"6 f C K n # . . X O @ @ % @ o X X o + & d 7 & + . . X X X o e n F F 4 + . . X o @ & @ + X . . X @ 6 j 4 ",
"j l Z I j + . . X % 6 j j j - + . . . + - d 3 @ o X X X X + g C K B $ . . X o - d j j 7 % . . . X & j 8 ",
"k b F P d @ . X o - 8 j k k d ; . . . . @ d 4 @ + X o o o @ g C P B o . . o @ 6 j j k k 7 @ . . . @ 6 8 ",
"k b P I j @ . X X & 3 4 d k b t @ X . . + d 3 @ + X o o o + g Z ! R # X X o @ 3 6 6 j n l 3 X . . o & 3 ",
"7 x I ^ x $ X X X + + @ 3 k Z B 3 + X . + d 3 @ o . . X X o g Z ! ! ; + X X o @ @ % j ! Z e o . X o + - ",
"@ w K ) P = + X X . . + 3 l ' ~ 4 + X X + d 3 @ + . X o X + e V ! ( l & X X X X X @ d } ^ e o X X o @ - ",
"o 0 Z ! ' x - o X X o % d ) #.W 4 + . X @ d 7 3 & % & @ o o 3 h I ' ! w @ . X . + - l #.{ 7 o X . o & 8 ",
"& 4 h I ' ( N 5 3 3 3 t ! @.o.s @ X + + & f j d 8 8 8 7 4 3 & t Z ) } R i ; 3 3 4 h  .*.( 6 o X o & d j ",
"8 7 g Z ( X.' F Z F F ^ #.$.! 0 o + % 3 7 c k k k k k k j j 3 7 b P { X.) Z Z F F ) =.O.M & + @ & e c k ",
"k j j k F (  .+.#.%.&.%.#. .i - @ & 7 j k c k k l l b b l k k d d x U { o.#.%.*.*.%.O.N ; + % 3 d k v c ",
"l k k j e x P ' } X.O.} N t & @ & 7 j k c k 7 - & 4 d b C b l k d 7 k K ) } X.+.o.' l & @ % 4 d k k c d ",
"Z V l j d ; * , h h u > * @ + & 8 j j d ; & + o o + @ * q x C b k d & * , y x m 1 = $ + @ 3 d k j 7 & @ ",
"V Z V k j @ X + % & @ + X o @ 4 j j 7 - + X . . . . . . @ q M V l k & + + % - % + X X + & 8 k d 6 & + . ",
"4 M Z n k - + X X X X X X + - 8 j 6 & + X . . . X X .   . o t V Z b k & X X X X . . X @ 6 j d - @ + o . ",
"o 0 C Z b d & X X X X X o @ 6 j d & + o . . X X . X X .   . & M P V k & X X X X . . X % 7 d & @ o . . . ",
". - l P C k - X X X . . o & 8 d & + o X X + - 6 4 3 @ X . . o u I Z l & . X X X X . + 4 j d @ X . . . & ",
". % h ! Z k 3 o X o o o + 3 d 7 o o X X + - d j j 9 & + . . . , Z K b & o X o o X o @ d d & X .   X & 8 ",
". % h ! Z l 3 o X + + + @ 3 8 3 . . . o & f k j d 8 3 @ X X . ; C P V ; + X o o o + & d - X . . . @ j j ",
"X - m ( K c ; X X X X o + 3 7 - .   . @ k K b 7 & & @ + X X X , Z I V * . . . . X + % 8 & .     . & k l ",
"o 4 Z ( F k - X X X . . + 3 3 & X . . & b  .Z 4 @ + o X X X + u ) I b * X . X . X + & 8 - . . . + : P n ",
"& p ^ ! Z 5 @ X X o + + @ 3 3 % X X X & n $.Z 4 + X X X X + : B ' K l & X X + + + @ & 8 - X X X + 1 } ) ",
"h ! ' P n & o + @ & & - 3 7 8 - o X X & V &.{ y & @ + + @ & M ! ( Z e & + @ & & & - 4 j - o o X o > { #.",
" .} ( Z j & % 6 j j j j j j k e @ + o % h $.-.{ f 7 * 4 g x ( ' P M & & 3 8 j j j j j k e & @ o X $ N $.",
" .( F l 7 7 d j k k k k k k c k 6 & @ + & N +.%.+.X.W  .X.} { ^ V d 8 d j k k k k k k c c e - % + @ t X.",
") K b j d k k b n l k k k k c c j d 3 % @ ; N  .%.$.@.+.o.} ^ V f j j k b n b b k j k c c c d 6 & @ & M ",
"p t d j k b b x y 0 4 4 4 4 t r k k d 3 % @ ; p R ( ) ^ P B i e d k k b n x w 0 3 3 4 e r z k j 6 & + - ",
"+ & 7 k n C x 5 + . . X X o o & d j k d - + + @ - e g g e - @ 4 k l V N h 4 + . . . X O @ 3 d k j 6 @ + ",
"o 3 k b Z n 0 + .   . X . . X + @ - d k 8 % + o o o + + + + & e k C K w & o . . X . . . X + - d j d 3 @ "
};
