/* XPM */
static char *out[] = {
/* columns rows colors chars-per-pixel */
"52 52 139 2 ",
"   c #66792E",
".  c #67792E",
"X  c #66792F",
"o  c #67792F",
"O  c #677A2F",
"+  c #677B2F",
"@  c #687A2F",
"#  c #687B2F",
"$  c #697B2F",
"%  c #677A30",
"&  c #677B30",
"*  c #667D32",
"=  c #667E33",
"-  c #687B30",
";  c #697B30",
":  c #687C30",
">  c #697C30",
",  c #6B7D30",
"<  c #6B7E30",
"1  c #6C7D30",
"2  c #6C7E30",
"3  c #6D7E30",
"4  c #6C7E31",
"5  c #6D7E31",
"6  c #638137",
"7  c #648137",
"8  c #6E8233",
"9  c #61863C",
"0  c #62863C",
"q  c #6F8738",
"w  c #62893F",
"e  c #628A3F",
"r  c #67893D",
"t  c #668A3D",
"y  c #678A3D",
"u  c #648A3E",
"i  c #668A3E",
"p  c #6B8A3B",
"a  c #6E893A",
"s  c #6D8A3A",
"d  c #6C8A3B",
"f  c #6E8A3A",
"g  c #688A3C",
"h  c #688A3D",
"j  c #718131",
"k  c #728231",
"l  c #718132",
"z  c #718232",
"x  c #728232",
"c  c #728332",
"v  c #748333",
"b  c #748432",
"n  c #758532",
"m  c #748433",
"M  c #758433",
"N  c #768533",
"B  c #778533",
"V  c #768633",
"C  c #778633",
"Z  c #788633",
"A  c #788733",
"S  c #798733",
"D  c #788734",
"F  c #798734",
"G  c #748A37",
"H  c #758A37",
"J  c #768A36",
"K  c #7B8933",
"L  c #798834",
"P  c #798935",
"I  c #7A8834",
"U  c #7A8934",
"Y  c #7B8934",
"T  c #7B8935",
"R  c #798A35",
"E  c #7B8A34",
"W  c #7A8A35",
"Q  c #7B8A35",
"!  c #788A36",
"~  c #7B8A36",
"^  c #7B8B36",
"/  c #7B8A37",
"(  c #7A8B37",
")  c #7B8B37",
"_  c #7C8934",
"`  c #7C8A34",
"'  c #7C8A35",
"]  c #718A38",
"[  c #718A39",
"{  c #7A8B38",
"}  c #7B8B38",
"|  c #7B8C38",
" . c #7A8C3A",
".. c #7A8D3A",
"X. c #7A8D3C",
"o. c #7A8E3C",
"O. c #7A8E3D",
"+. c #7A8E3E",
"@. c #7A8F3E",
"#. c #608940",
"$. c #618940",
"%. c #608941",
"&. c #608A40",
"*. c #618A40",
"=. c #608A41",
"-. c #758E42",
";. c #778F42",
":. c #799042",
">. c #799143",
",. c #799346",
"<. c #789347",
"1. c #799347",
"2. c #799447",
"3. c #709049",
"4. c #789348",
"5. c #799448",
"6. c #78954A",
"7. c #739651",
"8. c #779850",
"9. c #779851",
"0. c #779951",
"q. c #779852",
"w. c #779952",
"e. c #779A53",
"r. c #779A55",
"t. c #779B56",
"y. c #779B57",
"u. c #769C57",
"i. c #789850",
"p. c #769C58",
"a. c #779C58",
"s. c #769D59",
"d. c #769D5A",
"f. c #779D5A",
"g. c #769D5B",
"h. c #779D5B",
"j. c #769E5B",
"k. c #779E5B",
"l. c #769E5C",
/* pixels */
"' ' ' ' ' ' ' ' ' ' ' ' ' ' Q Y 0.h.g.<.Y ' ' ' ' ' ' ' ' ' ' ' ' ' ' ' ' ' ' ' ' Y 2 - - - - - - - - - ",
"' ' ' ' ' ' ' ' ' ' ' ' ' ' Q Y 0.h.g.<.Y ' ' ' ' ' ' ' ' ' ' ' ' ' ' ' ' ' ' ' ' Y 2 - - - - - - - - - ",
"' ' E ` ` ` E E Y Y ` ` _ Y Y Y q.j.l.4.Y ' ' ' ' ' ' ' E ` ` ` E E ' ' ' ' ' ' ' Y 1 O O O O O O O - - ",
"' ' ` p i i [ E Y C 1 2 3 I Y Y ..o.o.{ Y ' ' ' ' ' ' ' E d i i [ E ' ' ' ' ' ' ' Y D C C C C C v O - - ",
"' ' ` i *.&.f E Y B # - $ I Y Y Q Q Q Y Q ' ' ' ' ' ' ' Q h &.&.s E ' ' ' ' ' ' ' Y Y Y Y Y Y Y C O - - ",
"' ' ` i &.&.f E Y N O O ; L Y E E E E E E ' ' ' ' Y Y Y T r #.&.s E ' ' ' ' ' ' ' ' ' ' ' ' ' Y V X O O ",
"' ' E [ f f H E Y F x x c I Y E [ s s G Q ' ' ' Y U x l z q a f H E ' ' ' ' ' ' ' ' ' ' ' ' ' Y F z x x ",
"' ' E E E E E E Y Y Y Y Y Y Q E y &.&.f ' ' ' ' Y L > O # N Y E E E ' ' ' ' ' ' ' ' ' ' ' ' ' Y Y Y Y Y ",
"' ' ' ' ' ' ' ' ' ' ' ' ' ' Q E y &.&.f ' ' Y Y Y L > - # N Y Y Y Y ' ' ' ' ' ' ' ' ' ' ' ' ' Q Y Q Q Q ",
"' ' ' ' ' ' ' ' ' ' ' ' ' ' Q E d y t [ ' Y I N N n $ - # x B N F Y ' ' ' ' ' ' ' ' ' ' ' ' ' Y ~ +.+.+.",
"' ' ' ' ' ' ' ' ' ' ' ' ' ' E E Q Q Q E E Y N O # @ O - O + # O z Y ' ' ' ' ' ' ' ' ' ' ' ' ' Q o.g.d.d.",
"Y Y Y Y Y ' ' ' ' ' ' ' ' ' ' ' ' ' ' ' ' Y N # - - - - - - - % z Y ' ' ' Q E Q Q Q E Q ' ' ' Q o.j.f.f.",
"I I I Y Y ' ' ' ' ' ' ' ' ' ' ' ' ' ' ' ' Y N ; - - - - - O O % z Y ' ' ' E E R W W E E ' ' ' Q X.p.a.a.",
": : # C Y ' ' ' ' ' ' ' ' ' ' ' ' ' ' ' ' Y Y L I I I I L 4 O % z Y ' ' ' Q R u e e H Q ' ' ' Y Q ) / / ",
"- - O C Y ' ' ' Q E Q Q Q E ' ' ' ' ' ' ' Q Y Y Y Y Y Y Y 5 O % z Y ' ' ' Q R e *.*.H Q Y Y Y Y Y Y Y Y ",
"O O X C Y ' ' ' E E E E E E E ' ' ' ' ' ' ' ' ' ' ' ' ' Y 2 O O z Y ' ' ' Q R e &.&.G Q Y Y Y Y Y Y Y Y ",
"C C N I Y ' ' ' Q J y y h W Q ' ' ' ' ' ' ' ' ' ' ' ' ' Y Z C V S Y ' ' ' E E H H H R E Y b 2 2 2 2 2 2 ",
"Y Y Y Y Y ' ' ' Q G &.&.e R Q ' ' ' ' ' ' ' ' ' ' ' ' ' Y Y Y Y Y ' ' ' ' Q E Q ' ' E Q Y x O - - - - - ",
"Y Y Y Y Y ' ' ' Q G &.#.w P Y Y Y ' ' ' ' ' ' ' ' ' ' ' ' ' ' ' ' ' ' ' ' ' ' ' ' ' ' ' Y x O - - - - - ",
"5.5.5.| Q ' ' ' E ! f a a z z z S Y ' ' ' ' ' ' ' ' ' ' ' ' ' ' ' ' ' ' ' ' ' ' ' ' ' ' Y x O - - - - - ",
"k.k.l.o.Q ' ' ' Q ` ' T I # % O V Y ' ' ' ' ' ' ' ' ' ' ' ' ' ' ' ' ' ' ' ' ' ' ' ' ' ' Y x O - - - - - ",
"d.d.j.o.Q ' ' ' ' Y Y Y I > - O C Y Y Y ' Q Y Y Y Y Y ' ' ' ' ' ' ' ' ' ' Q Y Y Y Y Y ' Y x O O O O - - ",
"i.i.9. .Q ' ' ' Y I N N M ; - O c N N S Y Y ( @.@.O.Q Q ' ' ' ' ' ' ' ' ' Y Y N N N I Y Y b 2 5 < O - - ",
"Q Q Q Y Y ' ' ' Y N O # # O O O # # O x ` Y @.s.s.y.) Q ' ' ' ' ' ' ' ' ' Y L ; # O N Y Y Y Y Y C O - - ",
"' ' Y Y Y Y Y Y Y N # - - - - - - - O k ` Y @.s.f.t.} Q ' ' ' ' ' ' ' ' ' Y I - - # B Y ' ' ' Y C O - - ",
"' ' Y I L L L L L n @ - - - - O $ > ; x ` Y O.y.t.e.) Q ' ' ' ' ' ' ' ' ' Y I - - # B Y ' ' ' Y C - > > ",
"' ' Y 5 > > > > > $ O - - - - O M L L I Y Y Q ) } ) Y ' ' ' ' ' ' ' ' ' ' Y I - - # B Y ' ' ' Y U L L L ",
"' ' ` 2 - - - - - - - - - - - O V Y Y Y ' ' Q Q Q Q ' ' ' ' ' ' ' ' ' ' ' Y I - - # B Y ' ' ' ' Y Y Y Y ",
"' ' ` < O # # # # # O - - - - O C Y ' ' ' ' ' ' ' ' ' ' ' ' ' ' ' ' ' ' ' Y L ; # O N Y Y T Q Q Q Y ' ' ",
"' ' Y C N N N N N x + - - - - O C Y ' ' ' ' ' ' ' ' ' ' ' ' ' ' ' ' ' ' ' Y Y N N N I Y Y :.8.i.6.K ' ' ",
"' ' Y Y Y Y Y Y Y B # - - - - O C Y ' ' ' ' ' ' ' ' ' ' ' ' ' ' ' ' ' ' ' Q Y Y Y Y Y ' Y 1.g.d.w.K ' ' ",
"' ' E ' ' ' ` E Y N O % % % % O V Y ' ' ' ' ' ' ' Y ` ` ` Y ' ' ' ' ' ' ' ' ' ' ' ' ' ' Y ,.j.f.w.K ' ' ",
"' ' ` [ f f H E Y F z z z z z z S Y ' ' ' ' ' ' Y I x k x S Y ' ' ' ' ' ' ' ' ' ' ' ' ' Y O.5.2.>.Y ' ' ",
"' ' ` i &.=.f E Y Y Y Y Y Y Y Y Y ' ' ' ' ' ' ' Y L ; O O N Y ' ' ' ' ' ' ' ' ' ' ' ' ' Y Y Y Y Y Y ' ' ",
"' ' ` i &.&.f E ' ' ' ' ' ' ' ' ' ' ' ' ' ' Y Y Y L > - # N Y ' ' ' Q Y E E E Y Q E Q ' ' Q E ' ' ' ' ' ",
"' ' ` p y t ] E ' ' ' ' ' ' ' ' ' ' ' ' ' Y I V V M $ - # N Y ' ' ' Y ^ +.+.O.T Y E J H H ! E ' ' ' ' ' ",
"' ' E E E E E E ' ' ' ' ' ' ' ' ' ' ' ' ' Y N O O O O - # N Y ' ' ' E +.g.d.u./ Q Q y &.&.s E ' ' ' ' ' ",
"' ' E Q Q Q E E ' ' ' ' ' ' ' ' ' ' ' ' ' Y N # - O - - # N Y ' ' ' E +.d.f.y./ Q Q y *.&.s E ' ' ' ' ' ",
"' ' ' ' ' ' ' ' ' ' ' ' ' ' ' ' ' ' ' ' ' Y N # - O ; > $ N Y ' ' ' E O.u.y.r.~ Q Q g e e f E ' ' ' ' ' ",
"' ' ' ' ' ' ' ' ' ' ' ' ' ' ' ' ' ' ' ' ' Y N # - $ A I I Y Y ' ' ' Y T / / ~ Y Y E W W W W E ' ' ' ' ' ",
"' ' ' ' ' ' ' ' ' ' ' ' ' ' ' ' ' ' ' ' ' Y N # - > L Y Y Y ' ' ' ' Q Y Q Q Q Y Q E Q Q Q Q E ' ' ' ' ' ",
"Y Y Y Y Y ' ' ' ' ' ' E E Q Q Q E E Y Y Y Y N # - > L Y ' ' ' ' ' ' ' ' ' ' ' ' ' ' ' ' ' ' ' Y Y Y Y Y ",
"2 2 1 D Y ' ' ' ' ' ' Q W g y y J Q Y m 2 2 , O - > L Y ' ' ' ' ' ' ' ' ' ' ' ' ' ' ' ' ' ' ' Y D 1 2 2 ",
"- - O C Y ' ' ' ' ' ' Q W e *.&.H ' Y z % - - - - > L Y ' ' ' ' ' ' ' ' ' ' ' ' ' ' ' ' ' ' ' Y C O - - ",
"- - O C Y Y Y Y ' ' ' Q W e &.&.H ' Y z O O O O O > L Y E E E E E E ' ' ' ' ' ' ' ' ' ' Y Y Y Y C O O O ",
"- - o -.,.1.O.Y ' ' ' Q W f s s ! Q Y N l l l l l x U Y E ] f f H E ' ' ' ' ' ' ' ' ' ' Y V x z 8 6 7 7 ",
"- - . 7.d.j.1.Y ' ' ' E E E E E E E Y Y Y Y Y Y Y Y Y ' Q y &.&.s E ' ' ' ' ' ' ' ' ' ' Y x O O = =.#.#.",
"- - . 7.d.d.,.Y ' ' ' ' ' ' ' ' ' ' ' ' ' ' ' ' ' ' ' ' Q h &.&.s E ' ' ' ' ' ' ' ' ' ' Y x O & = %.$.$.",
"- - . 3.7.7.;.Y ' ' ' ' ' ' ' ' ' ' ' ' ' ' ' ' ' ' ' ' E d i i [ E ' ' ' ' ' ' ' ' ' ' Y x O & * 9 0 0 ",
"- - O . .   j Y ' ' ' ' ' ' ' ' ' ' ' ' ' ' ' ' ' ' ' ' E ` ` ` E E ' ' ' ' ' ' ' ' ' ' Y x O O O O O O ",
"- - - - - O x Y ' ' ' ' ' ' ' ' ' ' ' ' ' ' ' ' ' ' ' ' ' ' ' ' ' ' ' ' ' ' ' ' ' ' ' ' Y x O - - - - - ",
"- - - - - O x Y ' ' ' ' ' ' ' ' ' ' ' ' ' ' ' ' ' ' ' ' ' ' ' ' ' ' ' ' ' ' ' ' ' ' ' ' Y x O - - - - - "
};
