/* XPM */
static char *out[] = {
/* columns rows colors chars-per-pixel */
"52 52 190 2 ",
"   c #283D3A",
".  c #293C3E",
"X  c #5F2E0E",
"o  c #5D2E12",
"O  c #592E1B",
"+  c #4D331B",
"@  c #50351C",
"#  c #5A3218",
"$  c #632C0E",
"%  c #632D11",
"&  c #683518",
"*  c #733B1C",
"=  c #473528",
"-  c #543B23",
";  c #543927",
":  c #5A3D23",
">  c #6E3C23",
",  c #66401E",
"<  c #5E4125",
"1  c #5C432A",
"2  c #5E4D2D",
"3  c #414E3F",
"4  c #42503F",
"5  c #6C4A25",
"6  c #664629",
"7  c #794526",
"8  c #6E562A",
"9  c #6E5B2D",
"0  c #735A2D",
"q  c #634A31",
"w  c #694E33",
"e  c #7B4D33",
"r  c #6B5338",
"t  c #785536",
"y  c #71573D",
"u  c #73593E",
"i  c #5F6E3C",
"p  c #74632E",
"a  c #77712E",
"s  c #666635",
"d  c #6D6E35",
"f  c #756331",
"g  c #756A38",
"h  c #667F35",
"j  c #6A7C32",
"k  c #777937",
"l  c #1D3F52",
"z  c #2B3F40",
"x  c #233F52",
"c  c #0A4949",
"v  c #0E4951",
"b  c #1A4257",
"n  c #2D4242",
"m  c #384B44",
"M  c #394E4F",
"N  c #355D4F",
"B  c #3D5354",
"V  c #144364",
"C  c #174768",
"Z  c #16496C",
"A  c #174C70",
"S  c #184B71",
"D  c #3C586B",
"F  c #2F6F64",
"G  c #306F65",
"H  c #24706A",
"J  c #2A756B",
"K  c #414E41",
"L  c #425757",
"P  c #425659",
"I  c #425858",
"U  c #775C42",
"Y  c #795F44",
"T  c #546146",
"R  c #616B44",
"E  c #7B6146",
"W  c #786E49",
"Q  c #7B7D44",
"!  c #4E6979",
"~  c #667B7A",
"^  c #83492B",
"/  c #85573C",
"(  c #965937",
")  c #985D3F",
"_  c #8C6A3D",
"`  c #866144",
"'  c #9E6341",
"]  c #807B4C",
"[  c #A16644",
"{  c #A66A48",
"}  c #AC704E",
"|  c #A57556",
" . c #B47B5B",
".. c #64843A",
"X. c #6D873A",
"o. c #668A3E",
"O. c #748334",
"+. c #798635",
"@. c #7D8B36",
"#. c #73813E",
"$. c #7E843C",
"%. c #72893A",
"&. c #7D8B39",
"*. c #1B847F",
"=. c #5F8940",
"-. c #618A41",
";. c #688944",
":. c #798B41",
">. c #7A9244",
",. c #72914A",
"<. c #7A944A",
"1. c #758F55",
"2. c #799A53",
"3. c #779E5B",
"4. c #81843C",
"5. c #BE815E",
"6. c #89936B",
"7. c #B68667",
"8. c #C28664",
"9. c #C68A66",
"0. c #C98B67",
"q. c #C78C6A",
"w. c #C98C6A",
"e. c #C79374",
"r. c #C99373",
"t. c #D79A76",
"y. c #DDA27E",
"u. c #2877AA",
"i. c #2A7CB7",
"p. c #4D7183",
"a. c #537689",
"s. c #734CCB",
"d. c #855BBB",
"f. c #8C60B8",
"g. c #B27FAF",
"h. c #A977B4",
"j. c #188B8A",
"k. c #178F91",
"l. c #149190",
"z. c #199D9F",
"x. c #1F87A3",
"c. c #2F8CB3",
"v. c #1EA4A5",
"b. c #23A2A3",
"n. c #678A9E",
"m. c #68899D",
"M. c #7E9392",
"N. c #378CC7",
"B. c #3CBDDB",
"V. c #4CA3DA",
"C. c #50AFEA",
"Z. c #4FB0EA",
"A. c #50B0EA",
"S. c #26CDCC",
"D. c #29CCCE",
"F. c #879B9A",
"G. c #899D9D",
"H. c #B69687",
"J. c #BDA187",
"K. c #BD89AA",
"L. c #8DA1A1",
"P. c #91A6A5",
"I. c #9EB2B3",
"U. c #CBA38A",
"Y. c #E9AB87",
"T. c #E3A688",
"R. c #EAAE8B",
"E. c #EDAF8F",
"W. c #ECB18D",
"Q. c #EBB191",
"!. c #F3B693",
"~. c #FABC96",
"^. c #F6BB9B",
"/. c #FCBE9A",
"(. c #C79FB8",
"). c #CBA1B9",
"_. c #F3B7A4",
"`. c #FAC8A9",
"'. c #F9CCB1",
"]. c #9D84D2",
"[. c #BE98C3",
"{. c #A38ADB",
"}. c #C09CC3",
"|. c #B5CACB",
" X c #B8CDCE",
".X c #BACFD2",
"XX c #BCD1D3",
"oX c #F9DECD",
"OX c #F9E5DA",
"+X c #FDFCFB",
/* pixels */
"j j j j j j j j j j @.@.@.@.@.@.@.@.@.@.@.@.@.@.@.@.@.@.@.@.@.@.<.3.3.3.@.@.@.@.@.@.@.@.@.@.@.@.@.@.@.@.",
"j j j j j j j j j O.@.@.@.@.@.@.@.@.@.@.@.@.@.&.@.@.@.@.@.@.@.@.>.3.3.3.@.@.@.@.@.@.@.@.@.@.@.@.@.@.@.&.",
"j j j j j j j j j j @.@.@.4.@.@.@.@.@.@.@.@.@.@.@.@.@.@.@.4.@.@.>.3.3.2.@.@.@.@.@.@.@.@.@.@.&.&.@.@.@.@.",
"j j j O.+.+.+.O.+.@.@.@.@.@.@.@.@.@.@.%.o.o.X.@.@.@.@.@.@.@.@.@.&.>.&.&.@.@.@.j j j @.@.@.%.o.;.X.@.&.@.",
"j j j +.@.@.@.@.@.@.@.@.@.@.@.+.4.@.+.X.=.=...@.@.@.@.4.@.@.@.@.@.@.@.@.@.@.@.j j j O.@.@.%.;.-.o.@.@.@.",
"j j j +.@.$.:.Q d d d d d d d d a j d d i i h d d d d j d d d d d d d d d d d s s s s d k O.6.3.o.@.@.@.",
"O.O.O.+.4.] Y Y 1 + + + @ + + + + + + + + + + + + + + + + + + + + + + + + + + + + + + + u E W :.%.@.@.@.",
"@.+.@.@.@.] Y Y < + + @ @ + + + + + + + + + + + + + + + + @ + + + + + + + + + + + + + + y Y W &.@.@.@.@.",
"@.@.@.@.@.s : - w y y u U U y U y y y U y U u u 0 u u u u u u u y U y u u u y y u u u r 1 @ r @.@.@.@.@.",
"&.&.>.&.+.s + + r E E E Y Y Y Y E E E E E E E E E E E E E E E E E E E E E E E E E E E E < + 2 @.@.&.@.@.",
"3.3.3.&.@.p + + q U y u U r y U y y U y y y U y y u u y u E E E E E E E E E E W E E E U - + 2 &.@.@.@.@.",
"3.3.3.&.+.s + + + + + + + + + + + + + + + + + + + + + + : E E E E E E E E E E E E E E E - + 2 &.@.@.@.@.",
"3.3.3.&.@.s + + @ + @ @ + @ @ @ + - + + @ @ @ @ @ @ @ @ : Y E E E E E E E E E E E E E E - + 2 @.@.@.+.@.",
"&.&.@.@.@.p o # | e.e.e.e.r.r.r.e.r.e.e.r.r.e.r.e.e.e.e.7.: 1 r E E E E E E E E E E E E ; + 2 %.@.O.j j ",
"&.@.@.@.@.p X % q./././././././././././././././././.~./.T.+ + r E E E E E E E E E E E E - + 2 @.O.j j j ",
"@.@.@.@.@.p $ $ w././././././././././././././././././.^.T.t t r y y E E E E E E E E E E ; + 2 @.+...j j ",
"j j j j O.9 % $ 0.~././././.~././././././././././././././.!.^.` + @ Y E E E E E E E E Y - + 2 @.@.+.@.@.",
"j j j j j 0 % % w.~.^.^./././.^././././././.^././././.~./././.` + = Y E E E E Y E E E Y - + 2 @.@.@.@.@.",
"j j j j j 9 % $ w./.`.oXoX(.K.K.`./././.^.K.K.).oXoX`././././.` + + q q q 1 q Y E E E Y - + 2 &.@.@.@.@.",
"j j j j j 9 % $ w./.'.+X+X].s.d._./././._.d.s.{.+X+X`.^./././.` + + + + + + - Y Y E E E - + 2 &.@.<.<.>.",
"j j j j j 9 % $ w./.'.+X+X].s.d._.~././._.f.s.{.+X+X`._./././.` + @ 6 1 : 6 6 U u Y E Y ; + 2 @.&.3.3.3.",
"j j j j j 9 % % w./.'.+X+X].s.s._./././._.f.s.{.+X+X`././././.` + < T.Q.Q.Q.T.: + 1 Y Y ; + 2 &.%.3.3.3.",
"j j j j j 0 % % w./.'.+X+X].s.d._./././._.d.s.{.+X+X`././././.` + # ^./._./.Q.; + 1 E Y - + 2 &.@.2.2.2.",
"j j j $.@.f % % w./.`.OXOX[.h.g.T.Y.Y.Y.Q.g.h.}.OXOX`./.!././.| t / T.Y.!./.Q.: + : r r - + 2 +.@.@.@.&.",
"j j j $.@.f X $ w./././././.~.!.w.0.0.0.0.!./.~.`.~./.~././.~.t.w.q.0.w.T.~.R.- + + + + + + q 4.@.@.@.@.",
"j j j O.@.f % % w./././.^.~.~.!.w.9.9.9.0.W.!.~./.~././././.~.y.0.0.0.9.y.~.R.6 @ @ @ @ + + 6 +.@.@.@.@.",
"@.@.+.@.@.f $ % w././././.8.{ { ' ' ) ' [ { { 9./././././././.t.0.w.0.0.0.t.w. .7. . .} , X 6 j O.+.@.@.",
"@.@.@.@.@.f $ $ w././.~.~. .( ( ( ( ( ( ( ( (  .~././././././.t.9.0.0.0.0.0.0.0.9.0.0.8.7 $ 5 j ..@.@.@.",
"@.@.@.@.@.f o % { 8.8.8.5.) ^ ^ ^ ^ ^ ^ ^ ^ ^ ) 5.9.8.8.9.9.8.} [ [ [ [ [ [ [ [ [ [ [ ' * $ , j O.@.@.@.",
"@.@.@.<.2.g $ % $ % $ $ % $ $ $ $ $ $ $ $ $ $ $ % $ $ $ $ $ $ $ $ $ $ $ $ $ $ $ $ $ $ $ $ $ 5 @.O.@.@.@.",
"@.@.&.2.3.R % % $ $ X o X o o o o o $ X o o o o o o o o o o o o o o o o $ o $ $ $ $ $ $ X X 5 @.@.@.@.@.",
"@.@.4.2.3.1.k a 5 $ +     N G F G G G G G G F G G G G G G G G G G G F G G G F # $ $ $ % a a k @.@.@.@.@.",
"@.@.@.>.<.<.&.&.8 % + c c H l.l.l.l.l.l.l.l.l.l.l.l.l.l.l.l.l.k.l.l.l.l.j.l.*.# $ $ % & k %.%.%.%.@.@.@.",
"@.@.@.@.@.@.4.4._ ^ q c c j.z.z.z.z.z.z.z.z.z.z.z.z.z.z.z.z.z.z.l.l.l.j.j.J F e ^ ^ * 7 _ %.;.=.o.@.@.@.",
"@.@.@.@.4.a % & q.^.J.c c v.S.S.S.S.S.S.S.S.S.S.S.S.S.S.S.S.S.v.l.l.l.l.N % * E.^.Y.9.8.7 % w o.o.@.@.@.",
"@.@.&.@.4.f $ % q./.U.c c v.D.S.D.D.D.S.S.D.D.D.D.D.D.D.D.S.D.v.k.k.l.j.N $ * E.~.Y.q.8.* X 6 o.X.@.@.@.",
"@.@.@.@.@.a $ % w._.U.l V c.D.Z.D.Z.D.Z.Z.D.Z.D.D.Z.D.Z.B.B.Z.b.x.x.x.x.B % & E./.Y.w.8.7 $ 5 @.@.@.@.@.",
"@.@.@.@.@.p % $ w._.J.C V N.Z.Z.Z.Z.C.C.Z.Z.Z.Z.Z.Z.A.Z.A.A.C.N.i.i.i.i.P o * E./.Y.0.0.* X 5 &.@.@.@.@.",
"@.@.@.@.@.g , , w.W.H.C C c.V.V.V.V.V.V.V.V.V.V.V.V.V.V.V.V.V.c.u.u.u.u.D O : T.R.t.5. .5 * t @.@.@.@.@.",
"@.4.@.@.@.@.@.+.0 * ; b V Z A Z A A A Z A A A A A A A A A A A S Z Z Z Z V l x > * * & * k $.+.@.@.@.@.@.",
"@.@.@.@.@.@.@.@.0 % = l V V V V V V V V V V V V V v V V V V V V V V V V C V b O % % $ % O.@.@.@.@.+.@.@.",
"@.@.@.+.@.@.@.@.k f R n l a.n.n.n.n.n.n.n.p.a.D l l m.n.n.n.n.n.m.m.p.p.p.p.! = = q p g @.@.@.@.@.@.@.@.",
"O.O.O.O.@.@.@.@.@.@.#.. z L..XXXXXXXXXXXXXP.G.~   z I.XXXXXXXXXXXX.XL.G.G.G.M.n . T $.+.@.@.@.@.O.O.O.O.",
"j j O.@.@.@.@.@.@.@.#.. z G. X.X X X X X|.L.F.~   z I. X X X X X|.|.F.F.F.F.M.n . T @.@.@.@.@.@.O.j j j ",
"h j j O.+.@.@.@.&.&.#.. z M B B L L L I B M M m z . M B I I I I P P M M M M M . . T @.@.@.&.&.@.@.j j j ",
"h ....O.O.O.O.@.@.4.k . z z z z z z   . z z       z z z   n   z z . . . . . . . . T &.@.@.&.<.<.%.j j j ",
"=.=.=.h j j O.@.@.@.#.4 3 3 m K K K K m m m 3 4 3 K m m 4 4 4 4 K K m K K K K K 3 R @.@.@.>.3.3.,...j j ",
"=.=.=.h j O.O.@.@.@.@.&.@.$.&.$.&.&.&.%.-.-.;.@.4.@.@.$.@.@.@.@.&.@.@.&.&.&.&.&.&.@.@.@.@.>.3.3.,.j j j ",
"......h j j O.O.@.@.@.@.@.@.@.@.@.@.@.%.o.o.X.@.@.@.@.@.@.@.@.@.@.@.@.@.@.@.@.@.4.@.@.@.@.>.o.,.,...j j ",
"j h h j j j O.@.@.@.@.@.@.@.@.@.@.@.@.@.@.@.@.@.@.@.@.@.@.@.@.@.@.@.@.@.@.@.4.@.@.@.@.@.@.@.j j ..O.j j ",
"j j j j j j O.@.@.@.@.@.@.@.@.@.@.@.@.@.@.@.@.@.@.@.@.@.@.@.@.@.4.@.@.@.@.@.@.@.@.@.@.@.@.O.O.j j j j j ",
"j j j j j j O.@.@.@.@.@.@.@.@.@.@.@.@.@.@.@.@.@.@.@.@.@.@.@.@.@.@.@.@.&.@.@.@.@.@.@.@.@.@.O...O.j j j j "
};
