/* XPM */
static char *out[] = {
/* columns rows colors chars-per-pixel */
"52 52 199 2 ",
"   c #2B3E32",
".  c #273C3D",
"X  c #293D3E",
"o  c #5F2D0F",
"O  c #5E2E12",
"+  c #572F1A",
"@  c #4D3217",
"#  c #47351E",
"$  c #4D331A",
"%  c #50351C",
"&  c #58361B",
"*  c #632C0E",
"=  c #632D11",
"-  c #682F11",
";  c #643112",
":  c #693112",
">  c #683A1A",
",  c #6B3B1D",
"<  c #71381A",
"1  c #463527",
"2  c #533A22",
"3  c #593E24",
"4  c #543B32",
"5  c #284135",
"6  c #3F4F3F",
"7  c #5A4026",
"8  c #5D4229",
"9  c #404F3F",
"0  c #5D4933",
"q  c #674729",
"w  c #7A4728",
"e  c #61542F",
"r  c #6C542A",
"t  c #6E5C2D",
"y  c #73542B",
"u  c #735D2D",
"i  c #634C31",
"p  c #694F35",
"a  c #784E31",
"s  c #615430",
"d  c #6B5739",
"f  c #71573C",
"g  c #72583D",
"h  c #7C5A3C",
"j  c #5F743C",
"k  c #73662E",
"l  c #77702E",
"z  c #686535",
"x  c #746735",
"c  c #6A7636",
"v  c #6A7C32",
"b  c #707336",
"n  c #767B3B",
"m  c #1E3F53",
"M  c #094B48",
"N  c #0B4A49",
"B  c #0C4A59",
"V  c #174458",
"C  c #294045",
"Z  c #364B45",
"A  c #3A4E4F",
"S  c #3D5243",
"D  c #314A53",
"F  c #336254",
"G  c #134363",
"H  c #164669",
"J  c #15496D",
"K  c #174C71",
"L  c #184A71",
"P  c #2F6E62",
"I  c #316D65",
"U  c #27776E",
"Y  c #404F40",
"T  c #474E4F",
"R  c #415145",
"E  c #414B59",
"W  c #425757",
"Q  c #435758",
"!  c #775D43",
"~  c #795E44",
"^  c #596644",
"/  c #7B6146",
"(  c #787847",
")  c #526E76",
"_  c #607474",
"`  c #83492A",
"'  c #875A3D",
"]  c #965937",
"[  c #965A38",
"{  c #9E623F",
"}  c #9D6544",
"|  c #80794B",
" . c #A46946",
".. c #A76B49",
"X. c #AD734F",
"o. c #A47656",
"O. c #B27A59",
"+. c #6F8133",
"@. c #64843B",
"#. c #668A3E",
"$. c #6D8A3C",
"%. c #748334",
"&. c #798635",
"*. c #7D8B36",
"=. c #7A843E",
"-. c #728A39",
";. c #7D8C3A",
":. c #7C903F",
">. c #5F8940",
",. c #608A40",
"<. c #698943",
"1. c #798542",
"2. c #7A9245",
"3. c #769349",
"4. c #799449",
"5. c #748E53",
"6. c #759954",
"7. c #789952",
"8. c #779E5A",
"9. c #82843E",
"0. c #8F9C73",
"q. c #BF8261",
"w. c #BF8F6F",
"e. c #BF8E70",
"r. c #C1835F",
"t. c #C18360",
"y. c #C58966",
"u. c #C98B67",
"i. c #C28D6D",
"p. c #C98C69",
"a. c #C8906E",
"s. c #C08F70",
"d. c #CE9471",
"f. c #D09371",
"g. c #D59A77",
"h. c #2777AA",
"j. c #297DB5",
"k. c #4D7182",
"l. c #54778A",
"z. c #734CCB",
"x. c #885DBA",
"c. c #A676B2",
"v. c #178D8C",
"b. c #15918E",
"n. c #168F90",
"m. c #149190",
"M. c #199D9D",
"N. c #1D87A2",
"B. c #2D8DB2",
"V. c #1BA2A2",
"C. c #21A7A7",
"Z. c #778B8B",
"A. c #628598",
"S. c #65899D",
"D. c #3489C5",
"F. c #3BBEDB",
"G. c #408FC2",
"H. c #4BA4DA",
"J. c #4EAFE9",
"K. c #50AFE9",
"L. c #51B0EA",
"P. c #25CDCC",
"I. c #28CDCE",
"U. c #869A99",
"Y. c #8A9E9E",
"T. c #AD9284",
"R. c #B39C87",
"E. c #BA86AB",
"W. c #8EA3A3",
"Q. c #92A7A7",
"!. c #A2B7B8",
"~. c #DDA583",
"^. c #E5A784",
"/. c #E6AA89",
"(. c #EBAE8A",
"). c #ECB08F",
"_. c #ECB28E",
"`. c #F3B693",
"'. c #F4BA95",
"]. c #FABC96",
"[. c #F6BB9A",
"{. c #FCBE99",
"}. c #C495B1",
"|. c #D2A9B7",
" X c #EFB6A2",
".X c #F2B7A3",
"XX c #FAC7A7",
"oX c #F9CFB6",
"OX c #9980D4",
"+X c #AB95DC",
"@X c #C3A2C7",
"#X c #B5C9CA",
"$X c #B8CDCD",
"%X c #B9CED0",
"&X c #BCD1D3",
"*X c #F9DCCA",
"=X c #F8E7DB",
"-X c #FBFAF5",
";X c #FCFCFB",
/* pixels */
"*.*.*.*.*.*.*.*.*.*.*.*.*.*.*.*.4.8.8.4.*.*.*.*.*.*.*.*.*.*.*.*.*.*.*.*.*.;.*.*.*.*.%.+.v v v v v v v v ",
"*.*.*.*.*.*.9.;.*.*.*.*.*.*.*.*.7.8.8.4.*.*.*.*.*.*.*.*.*.*.*.;.*.*.;.*.*.*.*.*.*.*.+.v v v v v v v v v ",
"*.*.*.*.*.*.*.*.*.*.*.-.*.*.*.*.7.8.8.4.*.*.*.*.*.*.*.*.*.9.*.*.*.*.*.*.*.*.*.*.*.*.+.v v v v v v v v v ",
"*.*.*.$.#.#.-.*.*.%.+.+.+.*.*.*.;.:.:.:.*.*.*.*.*.*.*.*.*.$.#.#.-.*.*.*.*.*.*.9.*.*.&.-.&.&.&.&.+.v v v ",
"*.*.*.#.#.#.$.*.*.*.v +.v *.*.*.*.*.*.*.*.*.;.*.*.;.*.*.*.$.,.,.$.*.*.&.*.*.*.*.*.*.*.*.*.*.*.*.&.v v v ",
"*.*.*.#.8.0.$.1.b v z z z b b b b v b b b b b b b c b b v c j j c b b b b b b b b b b n n 1.9.&.&.v v v ",
"*.*.*.-.3./ ~ ! % # @ @ @ @ $ @ @ @ @ $ @ $ @ @ $ @ @ @ $ @ @ $ @ $ $ @ @ @ $ @ @ @ # 7 / | | 9.&.+.+.+.",
"*.*.*.*.*.( ~ f % $ $ $ $ $ $ $ $ $ $ $ @ $ $ $ % $ $ $ $ $ $ $ $ $ $ $ $ $ $ $ @ @ $ 7 ~ ~ | n *.*.*.*.",
"*.*.*.*.*.d 2 7 d g g g ! g g g f f f f ! f f f g g d f g g g g g g g f g g f g f ! g p 3 2 z *.*.*.*.*.",
"*.*.*.*.*.s $ 2 ! / / / / / / / / / / / / / / / / / / / / / / / / ~ / / / / ~ ~ ~ / ~ p $ # z *.*.*.:.:.",
"*.*.*.*.*.s @ 2 ! / / / / / / / / / / / / / / ! g g ! ! ! ! g g h f f ! g ! f ! ! g ! i $ # t *.;.8.8.8.",
"*.*.*.*.&.s @ 2 ! / / / / / / / / / / / / / / 3 $ $ $ $ @ $ $ $ 1 $ $ % % $ $ $ $ $ $ $ @ @ z *.:.8.8.8.",
"*.*.*.*.*.s # 2 ! / / / / / / / / / / / ! ~ ~ 8 % $ % % $ $ $ % % % % @ $ @ % % % $ % $ @ @ z *.;.8.8.8.",
"v v v &.*.s @ 2 ! / / / / / / / / / / / ! 3 8 o.s.i.s.s.e.w.s.s.s.s.s.e.s.i.i.s.e.e.w.o.+ O t *.*.*.;.*.",
"v v v &.*.s # 2 ! / / / / / / / / / / / f $ $ d.{.{.{.{.{.{.{.{.{.{.{.{.{.{.{.{.{.].{.d.= * u *.*.*.*.*.",
"v v v %.*.s @ 2 ! / / / / / / / / / f f f p a ~.{.{.{.{.{.{.{.{.{.{.{.{.{.{.{.{.{.{.{.f.- * u *.*.*.*.*.",
"&.&.%.*.&.s @ 2 ~ / / / / / / / / / 2 # h '.'.].{.{.].{.{.{.{.{.{.{.{.{.{.{.{.{.{.{.{.d.; * t v +.v +.+.",
"*.*.*.*.*.s @ 2 ! / / / ~ ~ / ~ / / 2 @ h [.].{.].{.{.{.{.{.[.{.{.{.{.{.{.{.{.{.{.{.].d.; * r v v v v v ",
"*.*.*.*.&.s @ 2 ! / / / ~ p i i i i # $ h [.{.{.{.XX*X*X|.E.E.{.{.{.{.XX}.E.}.*X*XXX{.f.: * r v v v v v ",
"2.4.4.;.*.s # 2 ! / ~ ~ ~ 3 @ 1 @ 1 $ $ h [.].{.{.XX-X;X+Xz.x. X{.{.{..Xx.z.OX;X;XoX].d.o ; r v v v v +.",
"8.8.8.2.*.s @ 2 ! / ~ ! ! q 3 8 q 3 $ $ h {.].{..XXX-X;X+Xz.x. X{.{.{..Xx.z.OX;X;XoX].d.: o r v v v v v ",
"8.8.8.;.*.e @ 3 ~ / q 2 3 g.).).)./.8 @ h [.{.].{.XX-X;X+Xz.x..X{.{.{..Xx.z.OX;X;XoX{.d.: ; r v v v v v ",
"7.6.7.:.*.s # 2 ~ / 8 1 & ~.{.{.{.[.q # h [.{.].{.XX;X;X+Xz.x. X{.{.{. Xx.z.OX;X;XoX{.f.: * t v v v v v ",
"*.*.*.*.&.e @ 2 p p 3 # 2 ^.{.`././.' a } [.{.{.{.XX=X=X@Xc.c./.(.(.(.).c.c.E.=X=XXX{.f.- * u *.-.v v v ",
"*.*.*.*.*.e @ @ $ $ $ @ & ~.{.^.y.u.u.y.g.].{.{.].{.{.].].{.`.p.u.y.u.p.`.{.{.].].{.].d.= = u *.&.v v v ",
"*.*.*.*.*.e @ @ $ 2 1 % 3 ~.].^.u.u.u.u.g.{.{.{.{.{.{.{.].]._.u.u.u.y.u._.`.].{.{.{.{.f.- * u *.%.v v +.",
"*.*.*.+.v r O > X.O.O.O.O.p.f.d.u.u.u.u.g.{.{.{.{.{.{.{.p.....{ { { [  .....r.].{.{.{.f.- * u *.*.&.&.*.",
"*.*.*.+.v q = < t.u.u.u.y.u.p.u.u.p.u.u.g.{.{.].{.{.{.{.r.[ [ [ [ [ [ ] [ ] O.].{.{.{.f.= * u *.*.*.*.*.",
"*.*.9.v v q * : }  . . . . . . . . . . .X.y.y.y.y.y.y.y.{ ` ` ` ` ` ` ` ` ` [ t.p.y.y.X.* = u &.*.*.*.*.",
"*.*.*.&.&.r - * = * * = * * * * * * * * * * * * = * * * * * * * * * * * * * = o * o * * = * x 6.2.*.*.*.",
"*.*.*.*.*.r = = * = * * * * O O O O O O = O O O O O O O ; ; o o O O O O O = O o = * = = ; = b 8.7.*.*.*.",
"*.*.*.*.*.n l l ; * * = = F P I I I I I I I I I I P P I P I I I I I I I P P F 5   @ * q b b 5.8.7.*.*.*.",
"*.*.*.&.$.$.-.&.> * * * O U m.m.n.m.m.m.m.m.m.m.v.m.m.m.b.b.m.m.m.m.m.b.b.n.U M M 1 ; r *.;.4.4.:.*.*.*.",
"*.*.*.#.>.<.1.n w < w ` a I U v.n.m.m.m.m.M.M.M.M.M.M.M.M.M.M.M.M.M.M.M.M.V.v.M M 0 ` x 9.1.;.9.*.*.*.*.",
"*.*.*.#.>.r ; , t.u.^.[._.w O S v.m.v.m.V.P.P.P.P.P.P.P.P.P.P.P.P.P.P.P.I.I.C.N M e.[.d.: ; k *.*.*.*.*.",
"*.*.*.$.#.r o < t.u.^.].`.w * S v.m.v.n.V.P.P.I.I.I.P.P.I.I.I.I.I.I.I.P.I.I.C.N N R.[.d.; * u *.*.*.*.*.",
"*.*.*.*.*.r * < q.u.^.[.`.` * T N.N.N.N.B.F.F.F.I.J.I.J.I.J.I.J.I.J.I.J.I.J.B.B V R.{.f.= * u *.*.*.*.*.",
"*.*.*.*.*.y * < t.u.^.].`.` o T j.j.j.j.D.J.K.J.L.L.L.L.L.L.L.L.L.L.L.L.J.J.G.H G R.{.f.- = t *.*.*.*.*.",
"*.*.*.*.*.k > w O.r.g.(.^.a + E h.h.h.h.B.H.H.H.H.H.H.H.H.H.H.H.H.H.H.H.H.H.B.H G T.(.a.q , x *.*.*.*.*.",
"*.*.*.*.*.*.*.n w : < < > m V V H L J J J K K K K K K K K K K K K K K K K J L H V 4 < y &.&.*.*.*.*.*.*.",
"*.*.*.*.*.*.9.&.; * * = O m G G H H G G G G G G H H G G G G G G G G G G G G G H G 1 * r *.*.*.*.*.*.*.*.",
"*.*.*.*.*.*.*.*.l x i 1 1 ) k.k.k.) A.S.S.S.S.S.S.l.m m I k.k.S.S.S.S.S.S.S.l.V V d k n *.*.*.*.*.*.*.*.",
"+.+.+.*.*.*.*.*.*.*.^ . C Z.U.Y.Y.Y.#X&X%X&X&X%X&X!.Z X _ Y.W.%X&X&X%X&X%X&XQ.X X $.&.*.*.*.9.*.%.+.+.+.",
"v v v &.*.*.*.*.*.*.^ . C Z.U.U.U.U.#X$X%X$X$X$X%X!.C . _ U.W.#X$X$X$X$X$X$XQ.X X n 9.*.*.*.*.*.%.v v v ",
"v v v &.*.*.&.*.*.*.^ X X Z A A A A W W Q Q Q Q Q E X X D A A W Q Q Q Q Q Q A X . n *.*.*.*.*.*.%.+.v v ",
"v v v 1.4.4.;.;.*.&.^ . . . . . . . . X X X X X X . X X 5 5 5 C X X X X X X X X . n *.*.*.&.%.%.+.@.@.@.",
"v v v 6.8.8.4.*.*.*.c S R S Y Y R S R 9 S Y Y Y 9 R 9 6 9 6 S S 6 9 9 9 Y Y Y Y S %.*.*.*.%.+.v v >.>.>.",
"v v v 6.8.8.4.*.*.*.*.9.;.9.*.=.*.;.*.*.9.*.;.*.*.*.*.*.:.,.,.#.$.*.*.9.;.*.;.*.;.*.*.*.*.+.v v +.>.>.>.",
"v v v <.6.6.$.*.*.*.*.*.*.*.*.*.*.*.*.*.*.*.;.*.*.*.*.*.*.-.#.#.-.*.*.*.*.*.*.*.*.*.*.*.*.-.v v +.>.>.@.",
"v v v v v v %.*.*.*.*.*.*.*.*.*.*.*.*.*.*.*.*.*.*.*.*.*.*.*.*.*.*.*.*.*.*.*.*.*.*.*.*.*.*.&.v v v v v v ",
"v v v v v v %.*.*.*.*.*.*.*.*.;.*.*.*.*.*.*.*.9.*.*.*.*.*.*.*.*.*.*.*.*.*.*.*.*.*.*.*.*.*.%.+.v v v v v ",
"v v v v v v %.*.*.*.*.*.*.*.*.*.*.*.*.*.*.*.*.*.*.*.*.*.*.*.*.*.*.*.*.*.*.*.9.*.*.*.*.*.*.%.v v v v v v "
};
