/* XPM */
static char *_15e0aba50db447bc2fb552985b0269fyaSMkW016b6UrqSs[] = {
/* columns rows colors chars-per-pixel */
"52 52 256 2 ",
"   c black",
".  c #010101",
"X  c #020202",
"o  c gray1",
"O  c #040404",
"+  c gray2",
"@  c #060606",
"#  c #070707",
"$  c gray3",
"%  c #090909",
"&  c gray4",
"*  c #0B0B0B",
"=  c #0C0C0C",
"-  c gray5",
";  c #0E0E0E",
":  c gray6",
">  c #101010",
",  c #111111",
"<  c gray7",
"1  c #131313",
"2  c gray8",
"3  c #151515",
"4  c #161616",
"5  c gray9",
"6  c #181818",
"7  c #191919",
"8  c gray10",
"9  c #1B1B1B",
"0  c gray11",
"q  c #1D1D1D",
"w  c #1E1E1E",
"e  c gray12",
"r  c #202020",
"t  c gray13",
"y  c #222222",
"u  c #232323",
"i  c gray14",
"p  c #252525",
"a  c gray15",
"s  c #272727",
"d  c #282828",
"f  c gray16",
"g  c #2A2A2A",
"h  c gray17",
"j  c #2C2C2C",
"k  c #2D2D2D",
"l  c gray18",
"z  c #2F2F2F",
"x  c gray19",
"c  c #313131",
"v  c #323232",
"b  c gray20",
"n  c #343434",
"m  c #353535",
"M  c gray21",
"N  c #373737",
"B  c gray22",
"V  c #393939",
"C  c #3A3A3A",
"Z  c gray23",
"A  c #3C3C3C",
"S  c gray24",
"D  c #3E3E3E",
"F  c #3F3F3F",
"G  c gray25",
"H  c #414141",
"J  c gray26",
"K  c #434343",
"L  c #444444",
"P  c gray27",
"I  c #464646",
"U  c gray28",
"Y  c #484848",
"T  c #494949",
"R  c gray29",
"E  c #4B4B4B",
"W  c #4C4C4C",
"Q  c gray30",
"!  c #4E4E4E",
"~  c gray31",
"^  c #505050",
"/  c #515151",
"(  c gray32",
")  c #535353",
"_  c gray33",
"`  c #555555",
"'  c #565656",
"]  c gray34",
"[  c #585858",
"{  c gray35",
"}  c #5A5A5A",
"|  c #5B5B5B",
" . c gray36",
".. c #5D5D5D",
"X. c gray37",
"o. c #5F5F5F",
"O. c #606060",
"+. c gray38",
"@. c #626262",
"#. c gray39",
"$. c #646464",
"%. c #656565",
"&. c gray40",
"*. c #676767",
"=. c #686868",
"-. c DimGray",
";. c #6A6A6A",
":. c gray42",
">. c #6C6C6C",
",. c #6D6D6D",
"<. c gray43",
"1. c #6F6F6F",
"2. c gray44",
"3. c #717171",
"4. c #727272",
"5. c gray45",
"6. c #747474",
"7. c gray46",
"8. c #767676",
"9. c #777777",
"0. c gray47",
"q. c #797979",
"w. c gray48",
"e. c #7B7B7B",
"r. c #7C7C7C",
"t. c gray49",
"y. c #7E7E7E",
"u. c gray50",
"i. c #808080",
"p. c #818181",
"a. c gray51",
"s. c #838383",
"d. c #848484",
"f. c gray52",
"g. c #868686",
"h. c gray53",
"j. c #888888",
"k. c #898989",
"l. c gray54",
"z. c #8B8B8B",
"x. c gray55",
"c. c #8D8D8D",
"v. c #8E8E8E",
"b. c gray56",
"n. c #909090",
"m. c gray57",
"M. c #929292",
"N. c #939393",
"B. c gray58",
"V. c #959595",
"C. c gray59",
"Z. c #979797",
"A. c #989898",
"S. c gray60",
"D. c #9A9A9A",
"F. c #9B9B9B",
"G. c gray61",
"H. c #9D9D9D",
"J. c gray62",
"K. c #9F9F9F",
"L. c #A0A0A0",
"P. c gray63",
"I. c #A2A2A2",
"U. c gray64",
"Y. c #A4A4A4",
"T. c #A5A5A5",
"R. c gray65",
"E. c #A7A7A7",
"W. c gray66",
"Q. c #A9A9A9",
"!. c #AAAAAA",
"~. c gray67",
"^. c #ACACAC",
"/. c gray68",
"(. c #AEAEAE",
"). c #AFAFAF",
"_. c gray69",
"`. c #B1B1B1",
"'. c #B2B2B2",
"]. c gray70",
"[. c #B4B4B4",
"{. c gray71",
"}. c #B6B6B6",
"|. c #B7B7B7",
" X c gray72",
".X c #B9B9B9",
"XX c gray73",
"oX c #BBBBBB",
"OX c #BCBCBC",
"+X c gray74",
"@X c gray",
"#X c gray75",
"$X c #C0C0C0",
"%X c #C1C1C1",
"&X c gray76",
"*X c #C3C3C3",
"=X c gray77",
"-X c #C5C5C5",
";X c #C6C6C6",
":X c gray78",
">X c #C8C8C8",
",X c gray79",
"<X c #CACACA",
"1X c #CBCBCB",
"2X c gray80",
"3X c #CDCDCD",
"4X c #CECECE",
"5X c gray81",
"6X c #D0D0D0",
"7X c gray82",
"8X c #D2D2D2",
"9X c LightGray",
"0X c gray83",
"qX c #D5D5D5",
"wX c gray84",
"eX c #D7D7D7",
"rX c #D8D8D8",
"tX c gray85",
"yX c #DADADA",
"uX c gray86",
"iX c gainsboro",
"pX c #DDDDDD",
"aX c gray87",
"sX c #DFDFDF",
"dX c gray88",
"fX c #E1E1E1",
"gX c #E2E2E2",
"hX c gray89",
"jX c #E4E4E4",
"kX c gray90",
"lX c #E6E6E6",
"zX c #E7E7E7",
"xX c gray91",
"cX c #E9E9E9",
"vX c #EAEAEA",
"bX c gray92",
"nX c #ECECEC",
"mX c gray93",
"MX c #EEEEEE",
"NX c #EFEFEF",
"BX c gray94",
"VX c #F1F1F1",
"CX c gray95",
"ZX c #F3F3F3",
"AX c #F4F4F4",
"SX c gray96",
"DX c #F6F6F6",
"FX c gray97",
"GX c #F8F8F8",
"HX c #F9F9F9",
"JX c gray98",
"KX c #FBFBFB",
"LX c gray99",
"PX c #FDFDFD",
"IX c #FEFEFE",
"UX c white",
/* pixels */
"] ] ) C v b b b b b b b b b v n Q ] ' e.Z.C.Z.C.A.w.2 + > 6.A.C.2.` ' Y v v b b b b b b b b b c F ` ' ] ",
"] ] ) C v v v v v v v v v v v n Q ] ' e.Z.C.Z.C.A.w.2 + > 6.A.C.2.` ' U v v v b b b v v v v v c F ` ] ] ",
"] ] ) A n n N V V V V V V V B Z ( | } t.Z.C.Z.C.A.e.5 # 1 7.A.C.5.{ | Q V V N x z z b m n n n n G ( ) ) ",
"] ' ` ~ Q Q -.u.y.y.y.y.y.y.y.u.d.h.g.b.C.Z.Z.C.Z.i.v a z r.A.C.c.g.h.s.y.i.-.9 : 2 F ! Q Q Q ! I C C C ",
"] ' ' ] ] ] r.A.Z.Z.Z.Z.Z.Z.Z.Z.Z.Z.Z.Z.C.Z.Z.Z.Z.a.A v V y.Z.C.Z.Z.Z.Z.Z.S.e.2 O * K ] ] ] ] ] Y v v v ",
"] ' ' ' ' ' w.Z.C.C.C.C.C.C.C.C.C.C.C.C.C.C.C.C.Z.a.A c V y.Z.C.C.C.C.C.C.Z.w.3 + = K ] ' ' ' ' Y v v v ",
"] ] ) v s d I  . . . . .] P K P '  . . . . . . . .o.;.>.;.o. . .=.3.2.2.2.3.%.C b V ;.r.e.%.' ' ^ U I I ",
"] ] ^ 6 O + w c c c c c d $ O # a c c c c c c c x P c.A.n.Y z c P ' ` ` ` ` ' ] ] | h.A.Z.3.` ] ] ] ] ] ",
"] ] ^ 5 o O w v c c c v d % + $ s b b v v v c x z L c.A.b.T x c I ] ' ' ' ' ' ' ' | j.A.Z.3.` ' ' ' ' ] ",
"] ] _ J A A D F F F F F C a u u y t y b G F Y ' ' o.w.y.q.! D F L Y Y Y Y Y Y Y Y E *.3.2.{ U Y Q ` ' ] ",
"] ' } f.V.N.1._ ` ` ` ` ` _ _ ~ 7 + # n ' _ >.N.V.j...] ] ` ` ` H v v v v v v v v v b n n b v v G ` ' ] ",
"] ' } h.Z.C.2.` ' ' ] ] ] ] ] / 6 O + n [ ' <.C.A.l. .' ] ] ] ' G x c c c c c c c c c c c c c x F ' ] ] ",
"] ' } g.Z.C.0.@.#.| ~ ~ ~ ~ ~ R q ; ; b ~ ! @.p.s.0.) ! ~ ~ ~ ! T P P P P P P P P P P P P P P P P I I I ",
"] ' } g.Z.C.M.n.m.<.N m m m m m x l l v m m N Z Z C M m m m m m *.c.x.x.x.x.x.x.x.x.x.x.x.x.x.v...> - - ",
"] ' } h.Z.C.Z.Z.A.2.b v v v v v b b b v v v v v v v v v v v v v >.A.Z.Z.Z.Z.Z.Z.Z.Z.Z.Z.Z.Z.Z.S.+.$ + @ ",
") ) ] p.b.b.n.M.N.<.M n n n n n b v b b b b b b v v n m n x z z =.N.m.m.m.M.m.b.b.b.b.b.b.c.z.v. .; * = ",
"C C Z I T T { %.%. .! Q Q Q ! E B v b b b b b b v N R ! T w : > H &.%.%.%.%.o.W T T T T T M d d b J K K ",
"v v v c c c P ' ' ' ] ] ] ] ] ) C v b v v v v v v V ) ] / 6 O @ b ' ' ' ' ' ! n c c c c x 4 o o u ` ] ] ",
"v v v v v v I ] ' ' ' ' ' ' ] ) C v v v v v v v v V ( ] ^ 6 + @ n ] ' ] ] ] ~ m v v v v v 7 @ @ i _ ' ' ",
":.:.:.:.:.:.o.' ' [  ...| ' ' ) C v v ) >.:.:.:.>.*.[ ' ) A b n Y ] ' ] ] ' } -.:.:.:.:.:.+.{ } Y f s s ",
"Z.Z.Z.Z.Z.Z.3.` ' } @.#.o.' ' ) C v v >.A.Z.Z.Z.A.l. .' ' ] ] ] ] ' ] ] ] ' @.m.Z.Z.Z.Z.Z.Z.A.D.+.$ + + ",
"Z.Z.Z.Z.Z.C.3.` ' } @.#.O.] ' ) C v v >.S.Z.Z.Z.A.l. .' ' ] ] ] ] ' ' ' ' ` #.m.A.Z.Z.Z.Z.Z.Z.S.O.# + + ",
"y.y.y.y.y.t.&.' ' ) ^ ^ ! T Y I N v v ' 3.2.2.2.3.-.W Y U Z N B H Y Y Y Y U ^ >.2.2.2.2.2.0.y.u. .p u u ",
"] ] ] ] ] ] ' ' ' Y b b b v v v v v v b n n n n n b v b z , # # r b v v v v b b n n n n n Y ] ] ' _ _ _ ",
"' ' ' ' ` ` ' ' ` U b v v c c c v v v v v v v v v v v v l : O O w c c c c c c c c c c c c P ' ` ' ' ' ' ",
"] ' ] o.@.@.@.@.#.Q g d z K I L M v v M V V V V V V V V N d y y M I P P P P P P P P P P P ' #.@.@.@.@.@.",
"] ' } a.m.n.n.n.M.X.= $ i i.c.g.U c v L ) ( ( ( ( ( ( ( ' e.k.j.l.x.x.x.x.x.x.x.x.x.x.x.x.v.n.n.n.n.n.n.",
"] ' } h.A.Z.Z.Z.S.+.$ O y k.A.n.T c v U ] ] ] ] ] ] ] ] | h.A.A.Z.Z.Z.Z.Z.Z.Z.Z.Z.Z.Z.Z.Z.Z.Z.Z.Z.Z.Z.Z.",
"] ' } p.b.b.b.b.m...* # i a.n.j.Y c v P ) ) _ ' ' ` / ^ ` a.M.m.m.m.M.n.b.b.b.b.b.b.b.b.b.N.C.C.B.M.m.m.",
"] ' ` W T T T T R S d s l I T Y N v v M C C L ` ] R w 6 w ) &.%.%.%.%.} R T T T T T T T T 7.Z.Z.s.&.%.%.",
"] ] ) V x c c c c v b b b c c c v v v v v c F ` ] P = O & J ' ' ' ' ` U c c c c c c c c c :.Z.Z.t.' ` ' ",
"] ] ) C v v v v v v v v b b v v v v v v v v F ` ' I - @ = K ' ` ' ' ' Y b v v v v v v v v :.Z.C.y.] ' ] ",
"] ] ` R I U  .>.>.' b v b b v M X.>.:.:.:.>. .J H m * @ & b J H @.r.e.7.>.:.:.:.:.-.~ I I o.3.3.*.' ' ] ",
"' ' ] ] ] ] r.A.S.3.n v b b v V u.A.Z.Z.Z.S.3.b v f & @ % s v v >.A.Z.Z.Z.Z.Z.Z.Z.N.&.' ] ' ` ` ' ' ' ' ",
"] ] ] ' ' ' e.A.A.3.b c v v v V u.A.Z.Z.Z.A.3.b v d $ o # p c x :.A.Z.Z.Z.Z.Z.Z.Z.M.$._ ` ` ` ` ' ] ] ] ",
"B N C ~ ] ' ,.y.u.&.G F S b v N >.u.y.y.y.u.&.G F D S A D / ] ] ,.y.y.y.y.y.y.y.y.t.3.,.,.,.,.<.} V N B ",
"# # - K ] ' ' ] ] ' ` ` ! m v n ! ] ] ] ] ] ' ` _ +.c.B.B.B.B.B.2.' ] ] ] ] ] ] ] | g.V.B.B.B.C.O.& # # ",
"+ + * K ] ] ] ] ] ] ] ] ~ m v n ! ] ] ] ] ] ] ] ' #.n.Z.Z.Z.Z.C.3.' ] ] ] ] ] ] ' | j.A.Z.Z.Z.S.+.$ + + ",
"4 3 7 H ~ ~ ~ ~ ~ ~ ~ ~ T n v n Y ~ ~ ~ ~ ~ ~ ~ !  .b.Z.Z.Z.Z.C.>.! ~ ~ ~ ~ ~ ~ ! ( 8.s.a.a.a.d.} 5 3 4 ",
"! ! W Z m m m m m m m m n v v v n m m m m m m m n Y c.Z.Z.Z.Z.C.X.n m m m m m m m M C Z Z Z Z Z J ! ! ! ",
"] ] ) C c v v v v v v v v v b b v v v v v v v v c P c.Z.Z.C.Z.C. .c v v v v v v v v v v v c c c F ` ] ] ",
"] ] ) F B V m v v n B V N x z z b m n n n m b v c L g.b.b.b.b.v.] l z x v v v n n n n n n N V B P { } } ",
"] ' { 6.u.y.( c c ! t.i.-.9 : 2 F ! Q Q Q ! K v v M U T T T T T d : > q c v N R ! Q Q Q Q -.u.y.p.g.g.g.",
"] ' } j.A.Z. .c x ] C.S.e.2 O * K [ ] ] ] ] Y v v v c c c c c x 5 + + 4 c v V ) ] ] ] ] ] r.A.Z.Z.Z.Z.Z.",
"] ' } g.Z.V. .c x ] B.Z.w.2 + = K ' ` ` ` ' Y v v v v v v v v v 7 @ @ 5 c v V ( ] ' ' ` ' w.Z.C.C.C.C.C.",
"] ' [ ;.3.2.[ I I ! | ..^ p e y V H H H H H Z v v M L I I I I I ( } { O.:.>.*.[ ' _ I G H ^  . .$.2.2.2.",
"] ] ' ' ` ` ' ] ] Y c c c v v v v v v v v v v v v V ) ] ] ] ] ] r.S.A.Z.Z.A.l. .' ) C c v c c x D _ ` ` ",
"' ' ' ' ' ' ' ' ' Y v v v v b v c x x x x x c v c B ( ] ] ] ' ' e.A.Z.Z.Z.A.l. .' ) C v v v c c F ` ] ] ",
"Y Y Y Y Y Y Y Y Y G v v l u t p R [ ] ] ] ] ! G F K _ ] ] ] ' ' ,.y.y.0.2.3.-.W Y I N v v V F F U ` ' ] ",
"v v v v v v v v v v v b f & @ , 5.C.B.B.B.V.r.' ` ` ' ' ] ] ' ' ' ] ] T n n b v v v v v v I ` ` ` ' ' ] ",
"v v v v v v v v v v b b f & + > 6.A.Z.Z.Z.Z.y.] ' ' ' ] ] ] ] ] ' ' ' Y v v v v v v v v v I ] ' ' ' ] ] ",
"b b b b b b b b b b b b f & + > 6.A.C.Z.C.Z.y.] ' ] ] ] ] ] ] ] ] ] ' Y v v b b b b b v v I ] ] ] ] ] ] "
};
